# Relics-P04; model coordinates in block units; front faces -Z
mtllib mana_drone_dense.mtl
v 0.3494348 0.5000000 0.4069456
v 0.5000000 0.5930544 0.3494348
v 0.5000000 0.4069456 0.3494348
v 0.6505652 0.5000000 0.4069456
v 0.5930544 0.3494348 0.5000000
v 0.4069456 0.3494348 0.5000000
v 0.5000000 0.4069456 0.6505652
v 0.5000000 0.5930544 0.6505652
v 0.3494348 0.5000000 0.5930544
v 0.6505652 0.5000000 0.5930544
v 0.4069456 0.6505652 0.5000000
v 0.5930544 0.6505652 0.5000000
v 0.6218900 0.5377050 0.2217997
v 0.8100066 0.5958963 0.4997416
v 0.8100066 0.4041037 0.4997416
v 0.6218900 0.4622950 0.2217997
v 0.6223131 0.5378359 0.7779968
v 0.6223131 0.4621641 0.7779968
v 0.6160158 0.4641121 0.2352069
v 0.7959154 0.4084626 0.4997533
v 0.7959154 0.5915374 0.4997533
v 0.6160158 0.5358879 0.2352069
v 0.6164185 0.4639875 0.7645993
v 0.6164185 0.5360125 0.7645993
v 0.5282915 0.6244123 0.2217997
v 0.5719547 0.8164217 0.4997416
v 0.7380519 0.7205254 0.4997416
v 0.5935985 0.5867073 0.2217997
v 0.5283897 0.6248442 0.7779968
v 0.5939234 0.5870083 0.7779968
v 0.5890877 0.5825287 0.2352069
v 0.7272314 0.7105016 0.4997533
v 0.5686840 0.8020389 0.4997533
v 0.5269281 0.6184165 0.2352069
v 0.5893970 0.5828151 0.7645993
v 0.5270215 0.6188276 0.7645993
v 0.4064015 0.5867073 0.2217997
v 0.2619481 0.7205254 0.4997416
v 0.4280453 0.8164217 0.4997416
v 0.4717085 0.6244123 0.2217997
v 0.4060766 0.5870083 0.7779968
v 0.4716103 0.6248442 0.7779968
v 0.4730719 0.6184165 0.2352069
v 0.4313160 0.8020389 0.4997533
v 0.2727686 0.7105016 0.4997533
v 0.4109123 0.5825287 0.2352069
v 0.4729785 0.6188276 0.7645993
v 0.4106030 0.5828151 0.7645993
v 0.3781100 0.4622950 0.2217997
v 0.1899934 0.4041037 0.4997416
v 0.1899934 0.5958963 0.4997416
v 0.3781100 0.5377050 0.2217997
v 0.3776869 0.4621641 0.7779968
v 0.3776869 0.5378359 0.7779968
v 0.3839842 0.5358879 0.2352069
v 0.2040846 0.5915374 0.4997533
v 0.2040846 0.4084626 0.4997533
v 0.3839842 0.4641121 0.2352069
v 0.3835815 0.5360125 0.7645993
v 0.3835815 0.4639875 0.7645993
v 0.4717085 0.3755877 0.2217997
v 0.4280453 0.1835783 0.4997416
v 0.2619481 0.2794746 0.4997416
v 0.4064015 0.4132927 0.2217997
v 0.4716103 0.3751558 0.7779968
v 0.4060766 0.4129917 0.7779968
v 0.4109123 0.4174713 0.2352069
v 0.2727686 0.2894984 0.4997533
v 0.4313160 0.1979611 0.4997533
v 0.4730719 0.3815835 0.2352069
v 0.4106030 0.4171849 0.7645993
v 0.4729785 0.3811724 0.7645993
v 0.5935985 0.4132927 0.2217997
v 0.7380519 0.2794746 0.4997416
v 0.5719547 0.1835783 0.4997416
v 0.5282915 0.3755877 0.2217997
v 0.5939234 0.4129917 0.7779968
v 0.5283897 0.3751558 0.7779968
v 0.5269281 0.3815835 0.2352069
v 0.5686840 0.1979611 0.4997533
v 0.7272314 0.2894984 0.4997533
v 0.5890877 0.4174713 0.2352069
v 0.5270215 0.3811724 0.7645993
v 0.5893970 0.4171849 0.7645993
vt 0.5 0.5
vn -0.3568221 0.0000000 -0.9341724
vn 0.3568221 0.0000000 -0.9341724
vn -0.0000000 -0.9341724 -0.3568221
vn -0.5773503 -0.5773503 -0.5773503
vn 0.5773503 -0.5773503 -0.5773503
vn -0.3568221 0.0000000 0.9341724
vn 0.3568221 -0.0000000 0.9341724
vn 0.0000000 -0.9341724 0.3568221
vn -0.5773503 -0.5773503 0.5773503
vn 0.5773503 -0.5773503 0.5773503
vn 0.0000000 0.9341724 -0.3568221
vn -0.5773503 0.5773503 -0.5773503
vn 0.5773503 0.5773503 -0.5773503
vn -0.0000000 0.9341724 0.3568221
vn -0.5773503 0.5773503 0.5773503
vn 0.5773503 0.5773503 0.5773503
vn -0.9341724 -0.3568221 -0.0000000
vn -0.9341724 0.3568221 0.0000000
vn 0.9341724 -0.3568221 0.0000000
vn 0.9341724 0.3568221 -0.0000000
vn 0.3982519 0.1231937 -0.9089657
vn 0.9553362 0.2955201 -0.0007963
vn 0.9553362 -0.2955201 -0.0007963
vn 0.3982519 -0.1231937 -0.9089657
vn 0.3996344 0.1236214 0.9083007
vn 0.3996344 -0.1236214 0.9083007
vn -0.3982519 0.1231937 0.9089657
vn -0.9553362 0.2955201 0.0007963
vn -0.9553362 -0.2955201 0.0007963
vn -0.3982519 -0.1231937 0.9089657
vn -0.3996344 0.1236214 -0.9083007
vn -0.3996344 -0.1236214 -0.9083007
vn -0.9159428 0.0000000 -0.4013088
vn -0.2955202 0.9553365 -0.0000000
vn -0.2955202 0.9553365 0.0000000
vn -0.9153217 -0.0000000 0.4027235
vn -0.2955202 -0.9553365 0.0000000
vn 0.0924370 0.4064931 -0.9089657
vn 0.2217402 0.9751055 -0.0007963
vn 0.7335960 0.6795853 -0.0007963
vn 0.3058149 0.2832994 -0.9089657
vn 0.0927579 0.4079042 0.9083007
vn 0.3068765 0.2842828 0.9083007
vn -0.3058149 -0.2832994 0.9089657
vn -0.7335960 -0.6795853 0.0007963
vn -0.2217402 -0.9751055 0.0007963
vn -0.0924370 -0.4064931 0.9089657
vn -0.3068765 -0.2842828 -0.9083007
vn -0.0927579 -0.4079042 -0.9083007
vn -0.4579714 -0.7932297 -0.4013088
vn -0.9751058 0.2217402 -0.0000000
vn -0.4576608 -0.7926918 0.4027235
vn 0.6795856 -0.7335963 -0.0000000
vn 0.6795856 -0.7335963 0.0000000
vn -0.3058149 0.2832994 -0.9089657
vn -0.7335960 0.6795853 -0.0007963
vn -0.2217402 0.9751055 -0.0007963
vn -0.0924370 0.4064931 -0.9089657
vn -0.3068765 0.2842828 0.9083007
vn -0.0927579 0.4079042 0.9083007
vn 0.0924370 -0.4064931 0.9089657
vn 0.2217402 -0.9751055 0.0007963
vn 0.7335960 -0.6795853 0.0007963
vn 0.3058149 -0.2832994 0.9089657
vn 0.0927579 -0.4079042 -0.9083007
vn 0.3068765 -0.2842828 -0.9083007
vn 0.4579714 -0.7932297 -0.4013088
vn -0.6795856 -0.7335963 -0.0000000
vn 0.4576608 -0.7926918 0.4027235
vn 0.9751058 0.2217402 0.0000000
vn 0.9751058 0.2217402 -0.0000000
vn -0.3982519 -0.1231937 -0.9089657
vn -0.9553362 -0.2955201 -0.0007963
vn -0.9553362 0.2955201 -0.0007963
vn -0.3982519 0.1231937 -0.9089657
vn -0.3996344 -0.1236214 0.9083007
vn -0.3996344 0.1236214 0.9083007
vn 0.3982519 -0.1231937 0.9089657
vn 0.9553362 -0.2955201 0.0007963
vn 0.9553362 0.2955201 0.0007963
vn 0.3982519 0.1231937 0.9089657
vn 0.3996344 -0.1236214 -0.9083007
vn 0.3996344 0.1236214 -0.9083007
vn 0.9159428 -0.0000000 -0.4013088
vn 0.2955202 -0.9553365 -0.0000000
vn 0.2955202 -0.9553365 0.0000000
vn 0.9153217 -0.0000000 0.4027235
vn 0.2955202 0.9553365 0.0000000
vn -0.0924370 -0.4064931 -0.9089657
vn -0.2217402 -0.9751055 -0.0007963
vn -0.7335960 -0.6795853 -0.0007963
vn -0.3058149 -0.2832994 -0.9089657
vn -0.0927579 -0.4079042 0.9083007
vn -0.3068765 -0.2842828 0.9083007
vn 0.3058149 0.2832994 0.9089657
vn 0.7335960 0.6795853 0.0007963
vn 0.2217402 0.9751055 0.0007963
vn 0.0924370 0.4064931 0.9089657
vn 0.3068765 0.2842828 -0.9083007
vn 0.0927579 0.4079042 -0.9083007
vn 0.4579714 0.7932297 -0.4013088
vn 0.9751058 -0.2217402 -0.0000000
vn 0.9751058 -0.2217402 0.0000000
vn 0.4576608 0.7926918 0.4027235
vn -0.6795856 0.7335963 -0.0000000
vn -0.6795856 0.7335963 0.0000000
vn 0.3058149 -0.2832994 -0.9089657
vn 0.7335960 -0.6795853 -0.0007963
vn 0.2217402 -0.9751055 -0.0007963
vn 0.0924370 -0.4064931 -0.9089657
vn 0.3068765 -0.2842828 0.9083007
vn 0.0927579 -0.4079042 0.9083007
vn -0.0924370 0.4064931 0.9089657
vn -0.2217402 0.9751055 0.0007963
vn -0.7335960 0.6795853 0.0007963
vn -0.3058149 0.2832994 0.9089657
vn -0.0927579 0.4079042 -0.9083007
vn -0.3068765 0.2842828 -0.9083007
vn -0.4579714 0.7932297 -0.4013088
vn 0.6795856 0.7335963 0.0000000
vn 0.6795856 0.7335963 -0.0000000
vn -0.4576608 0.7926918 0.4027235
vn -0.9751058 -0.2217402 0.0000000
vn -0.9751058 -0.2217402 -0.0000000
g hull
usemtl mana_core
f 1/1/1 2/1/1 3/1/1
f 3/1/2 2/1/2 4/1/2
f 5/1/3 6/1/3 3/1/3
f 3/1/4 6/1/4 1/1/4
f 4/1/5 5/1/5 3/1/5
f 7/1/6 8/1/6 9/1/6
f 10/1/7 8/1/7 7/1/7
f 7/1/8 6/1/8 5/1/8
f 9/1/9 6/1/9 7/1/9
f 7/1/10 5/1/10 10/1/10
f 2/1/11 11/1/11 12/1/11
f 1/1/12 11/1/12 2/1/12
f 2/1/13 12/1/13 4/1/13
f 12/1/14 11/1/14 8/1/14
f 8/1/15 11/1/15 9/1/15
f 10/1/16 12/1/16 8/1/16
f 9/1/17 1/1/17 6/1/17
f 11/1/18 1/1/18 9/1/18
f 5/1/19 4/1/19 10/1/19
f 10/1/20 4/1/20 12/1/20
usemtl porcelain
f 13/1/21 14/1/22 15/1/23 16/1/24
f 14/1/22 17/1/25 18/1/26 15/1/23
usemtl porcelain_back
f 19/1/27 20/1/28 21/1/29 22/1/30
f 20/1/28 23/1/31 24/1/32 21/1/29
usemtl gold
f 19/1/33 22/1/33 13/1/33 16/1/33
f 22/1/34 21/1/34 14/1/34 13/1/34
f 21/1/35 24/1/35 17/1/35 14/1/35
f 24/1/36 23/1/36 18/1/36 17/1/36
f 23/1/37 20/1/37 15/1/37 18/1/37
f 20/1/37 19/1/37 16/1/37 15/1/37
usemtl porcelain
f 25/1/38 26/1/39 27/1/40 28/1/41
f 26/1/39 29/1/42 30/1/43 27/1/40
usemtl porcelain_back
f 31/1/44 32/1/45 33/1/46 34/1/47
f 32/1/45 35/1/48 36/1/49 33/1/46
usemtl gold
f 31/1/50 34/1/50 25/1/50 28/1/50
f 34/1/51 33/1/51 26/1/51 25/1/51
f 33/1/51 36/1/51 29/1/51 26/1/51
f 36/1/52 35/1/52 30/1/52 29/1/52
f 35/1/53 32/1/53 27/1/53 30/1/53
f 32/1/54 31/1/54 28/1/54 27/1/54
usemtl porcelain
f 37/1/55 38/1/56 39/1/57 40/1/58
f 38/1/56 41/1/59 42/1/60 39/1/57
usemtl porcelain_back
f 43/1/61 44/1/62 45/1/63 46/1/64
f 44/1/62 47/1/65 48/1/66 45/1/63
usemtl gold
f 43/1/67 46/1/67 37/1/67 40/1/67
f 46/1/68 45/1/68 38/1/68 37/1/68
f 45/1/68 48/1/68 41/1/68 38/1/68
f 48/1/69 47/1/69 42/1/69 41/1/69
f 47/1/70 44/1/70 39/1/70 42/1/70
f 44/1/71 43/1/71 40/1/71 39/1/71
usemtl porcelain
f 49/1/72 50/1/73 51/1/74 52/1/75
f 50/1/73 53/1/76 54/1/77 51/1/74
usemtl porcelain_back
f 55/1/78 56/1/79 57/1/80 58/1/81
f 56/1/79 59/1/82 60/1/83 57/1/80
usemtl gold
f 55/1/84 58/1/84 49/1/84 52/1/84
f 58/1/85 57/1/85 50/1/85 49/1/85
f 57/1/86 60/1/86 53/1/86 50/1/86
f 60/1/87 59/1/87 54/1/87 53/1/87
f 59/1/88 56/1/88 51/1/88 54/1/88
f 56/1/88 55/1/88 52/1/88 51/1/88
usemtl porcelain
f 61/1/89 62/1/90 63/1/91 64/1/92
f 62/1/90 65/1/93 66/1/94 63/1/91
usemtl porcelain_back
f 67/1/95 68/1/96 69/1/97 70/1/98
f 68/1/96 71/1/99 72/1/100 69/1/97
usemtl gold
f 67/1/101 70/1/101 61/1/101 64/1/101
f 70/1/102 69/1/102 62/1/102 61/1/102
f 69/1/103 72/1/103 65/1/103 62/1/103
f 72/1/104 71/1/104 66/1/104 65/1/104
f 71/1/105 68/1/105 63/1/105 66/1/105
f 68/1/106 67/1/106 64/1/106 63/1/106
usemtl porcelain
f 73/1/107 74/1/108 75/1/109 76/1/110
f 74/1/108 77/1/111 78/1/112 75/1/109
usemtl porcelain_back
f 79/1/113 80/1/114 81/1/115 82/1/116
f 80/1/114 83/1/117 84/1/118 81/1/115
usemtl gold
f 79/1/119 82/1/119 73/1/119 76/1/119
f 82/1/120 81/1/120 74/1/120 73/1/120
f 81/1/121 84/1/121 77/1/121 74/1/121
f 84/1/122 83/1/122 78/1/122 77/1/122
f 83/1/123 80/1/123 75/1/123 78/1/123
f 80/1/124 79/1/124 76/1/124 75/1/124
