# Relics-P04; model coordinates in block units; front faces -Z
mtllib rf_drone_dense.mtl
v 0.5950000 0.5950000 0.3656497
v 0.6343503 0.5000000 0.3656497
v 0.5000000 0.5000000 0.3100000
v 0.5000000 0.6343503 0.3656497
v 0.5950000 0.5950000 0.3656497
v 0.5000000 0.5000000 0.3100000
v 0.4050000 0.5950000 0.3656497
v 0.5000000 0.6343503 0.3656497
v 0.5000000 0.5000000 0.3100000
v 0.3656497 0.5000000 0.3656497
v 0.4050000 0.5950000 0.3656497
v 0.5000000 0.5000000 0.3100000
v 0.4050000 0.4050000 0.3656497
v 0.3656497 0.5000000 0.3656497
v 0.5000000 0.5000000 0.3100000
v 0.5000000 0.3656497 0.3656497
v 0.4050000 0.4050000 0.3656497
v 0.5000000 0.5000000 0.3100000
v 0.5950000 0.4050000 0.3656497
v 0.5000000 0.3656497 0.3656497
v 0.5000000 0.5000000 0.3100000
v 0.6343503 0.5000000 0.3656497
v 0.5950000 0.4050000 0.3656497
v 0.5000000 0.5000000 0.3100000
v 0.5950000 0.5950000 0.3656497
v 0.6343503 0.6343503 0.5000000
v 0.6900000 0.5000000 0.5000000
v 0.6343503 0.5000000 0.3656497
v 0.5000000 0.6343503 0.3656497
v 0.5000000 0.6900000 0.5000000
v 0.6343503 0.6343503 0.5000000
v 0.5950000 0.5950000 0.3656497
v 0.4050000 0.5950000 0.3656497
v 0.3656497 0.6343503 0.5000000
v 0.5000000 0.6900000 0.5000000
v 0.5000000 0.6343503 0.3656497
v 0.3656497 0.5000000 0.3656497
v 0.3100000 0.5000000 0.5000000
v 0.3656497 0.6343503 0.5000000
v 0.4050000 0.5950000 0.3656497
v 0.4050000 0.4050000 0.3656497
v 0.3656497 0.3656497 0.5000000
v 0.3100000 0.5000000 0.5000000
v 0.3656497 0.5000000 0.3656497
v 0.5000000 0.3656497 0.3656497
v 0.5000000 0.3100000 0.5000000
v 0.3656497 0.3656497 0.5000000
v 0.4050000 0.4050000 0.3656497
v 0.5950000 0.4050000 0.3656497
v 0.6343503 0.3656497 0.5000000
v 0.5000000 0.3100000 0.5000000
v 0.5000000 0.3656497 0.3656497
v 0.6343503 0.5000000 0.3656497
v 0.6900000 0.5000000 0.5000000
v 0.6343503 0.3656497 0.5000000
v 0.5950000 0.4050000 0.3656497
v 0.6343503 0.6343503 0.5000000
v 0.5950000 0.5950000 0.6343503
v 0.6343503 0.5000000 0.6343503
v 0.6900000 0.5000000 0.5000000
v 0.5000000 0.6900000 0.5000000
v 0.5000000 0.6343503 0.6343503
v 0.5950000 0.5950000 0.6343503
v 0.6343503 0.6343503 0.5000000
v 0.3656497 0.6343503 0.5000000
v 0.4050000 0.5950000 0.6343503
v 0.5000000 0.6343503 0.6343503
v 0.5000000 0.6900000 0.5000000
v 0.3100000 0.5000000 0.5000000
v 0.3656497 0.5000000 0.6343503
v 0.4050000 0.5950000 0.6343503
v 0.3656497 0.6343503 0.5000000
v 0.3656497 0.3656497 0.5000000
v 0.4050000 0.4050000 0.6343503
v 0.3656497 0.5000000 0.6343503
v 0.3100000 0.5000000 0.5000000
v 0.5000000 0.3100000 0.5000000
v 0.5000000 0.3656497 0.6343503
v 0.4050000 0.4050000 0.6343503
v 0.3656497 0.3656497 0.5000000
v 0.6343503 0.3656497 0.5000000
v 0.5950000 0.4050000 0.6343503
v 0.5000000 0.3656497 0.6343503
v 0.5000000 0.3100000 0.5000000
v 0.6900000 0.5000000 0.5000000
v 0.6343503 0.5000000 0.6343503
v 0.5950000 0.4050000 0.6343503
v 0.6343503 0.3656497 0.5000000
v 0.5950000 0.5950000 0.6343503
v 0.5000000 0.5000000 0.6900000
v 0.6343503 0.5000000 0.6343503
v 0.5000000 0.6343503 0.6343503
v 0.5000000 0.5000000 0.6900000
v 0.5950000 0.5950000 0.6343503
v 0.4050000 0.5950000 0.6343503
v 0.5000000 0.5000000 0.6900000
v 0.5000000 0.6343503 0.6343503
v 0.3656497 0.5000000 0.6343503
v 0.5000000 0.5000000 0.6900000
v 0.4050000 0.5950000 0.6343503
v 0.4050000 0.4050000 0.6343503
v 0.5000000 0.5000000 0.6900000
v 0.3656497 0.5000000 0.6343503
v 0.5000000 0.3656497 0.6343503
v 0.5000000 0.5000000 0.6900000
v 0.4050000 0.4050000 0.6343503
v 0.5950000 0.4050000 0.6343503
v 0.5000000 0.5000000 0.6900000
v 0.5000000 0.3656497 0.6343503
v 0.6343503 0.5000000 0.6343503
v 0.5000000 0.5000000 0.6900000
v 0.5950000 0.4050000 0.6343503
v 0.6157887 0.6626346 0.4862500
v 0.7775394 0.8102431 0.4862500
v 0.8155464 0.7722361 0.4862500
v 0.6370019 0.6104854 0.4862500
v 0.6370019 0.6104854 0.5112500
v 0.8155464 0.7722361 0.5112500
v 0.7775394 0.8102431 0.5112500
v 0.6157887 0.6626346 0.5112500
v 0.6370019 0.6104854 0.4862500
v 0.8155464 0.7722361 0.4862500
v 0.8155464 0.7722361 0.5112500
v 0.6370019 0.6104854 0.5112500
v 0.8155464 0.7722361 0.4862500
v 0.7775394 0.8102431 0.4862500
v 0.7775394 0.8102431 0.5112500
v 0.8155464 0.7722361 0.5112500
v 0.7775394 0.8102431 0.4862500
v 0.6157887 0.6626346 0.4862500
v 0.6157887 0.6626346 0.5112500
v 0.7775394 0.8102431 0.5112500
v 0.6157887 0.6626346 0.4862500
v 0.6370019 0.6104854 0.4862500
v 0.6370019 0.6104854 0.5112500
v 0.6157887 0.6626346 0.5112500
v 0.3373654 0.6157887 0.4862500
v 0.1897569 0.7775394 0.4862500
v 0.2277639 0.8155464 0.4862500
v 0.3895146 0.6370019 0.4862500
v 0.3895146 0.6370019 0.5112500
v 0.2277639 0.8155464 0.5112500
v 0.1897569 0.7775394 0.5112500
v 0.3373654 0.6157887 0.5112500
v 0.3895146 0.6370019 0.4862500
v 0.2277639 0.8155464 0.4862500
v 0.2277639 0.8155464 0.5112500
v 0.3895146 0.6370019 0.5112500
v 0.2277639 0.8155464 0.4862500
v 0.1897569 0.7775394 0.4862500
v 0.1897569 0.7775394 0.5112500
v 0.2277639 0.8155464 0.5112500
v 0.1897569 0.7775394 0.4862500
v 0.3373654 0.6157887 0.4862500
v 0.3373654 0.6157887 0.5112500
v 0.1897569 0.7775394 0.5112500
v 0.3373654 0.6157887 0.4862500
v 0.3895146 0.6370019 0.4862500
v 0.3895146 0.6370019 0.5112500
v 0.3373654 0.6157887 0.5112500
v 0.3842113 0.3373654 0.4862500
v 0.2224606 0.1897569 0.4862500
v 0.1844536 0.2277639 0.4862500
v 0.3629981 0.3895146 0.4862500
v 0.3629981 0.3895146 0.5112500
v 0.1844536 0.2277639 0.5112500
v 0.2224606 0.1897569 0.5112500
v 0.3842113 0.3373654 0.5112500
v 0.3629981 0.3895146 0.4862500
v 0.1844536 0.2277639 0.4862500
v 0.1844536 0.2277639 0.5112500
v 0.3629981 0.3895146 0.5112500
v 0.1844536 0.2277639 0.4862500
v 0.2224606 0.1897569 0.4862500
v 0.2224606 0.1897569 0.5112500
v 0.1844536 0.2277639 0.5112500
v 0.2224606 0.1897569 0.4862500
v 0.3842113 0.3373654 0.4862500
v 0.3842113 0.3373654 0.5112500
v 0.2224606 0.1897569 0.5112500
v 0.3842113 0.3373654 0.4862500
v 0.3629981 0.3895146 0.4862500
v 0.3629981 0.3895146 0.5112500
v 0.3842113 0.3373654 0.5112500
v 0.6626346 0.3842113 0.4862500
v 0.8102431 0.2224606 0.4862500
v 0.7722361 0.1844536 0.4862500
v 0.6104854 0.3629981 0.4862500
v 0.6104854 0.3629981 0.5112500
v 0.7722361 0.1844536 0.5112500
v 0.8102431 0.2224606 0.5112500
v 0.6626346 0.3842113 0.5112500
v 0.6104854 0.3629981 0.4862500
v 0.7722361 0.1844536 0.4862500
v 0.7722361 0.1844536 0.5112500
v 0.6104854 0.3629981 0.5112500
v 0.7722361 0.1844536 0.4862500
v 0.8102431 0.2224606 0.4862500
v 0.8102431 0.2224606 0.5112500
v 0.7722361 0.1844536 0.5112500
v 0.8102431 0.2224606 0.4862500
v 0.6626346 0.3842113 0.4862500
v 0.6626346 0.3842113 0.5112500
v 0.8102431 0.2224606 0.5112500
v 0.6626346 0.3842113 0.4862500
v 0.6104854 0.3629981 0.4862500
v 0.6104854 0.3629981 0.5112500
v 0.6626346 0.3842113 0.5112500
v 0.5000000 0.5575000 0.3112500
v 0.5575000 0.5000000 0.3112500
v 0.5000000 0.5000000 0.2937500
v 0.4425000 0.5000000 0.3112500
v 0.5000000 0.5575000 0.3112500
v 0.5000000 0.5000000 0.2937500
v 0.5000000 0.4425000 0.3112500
v 0.4425000 0.5000000 0.3112500
v 0.5000000 0.5000000 0.2937500
v 0.5575000 0.5000000 0.3112500
v 0.5000000 0.4425000 0.3112500
v 0.5000000 0.5000000 0.2937500
v 0.5000000 0.5000000 0.3237500
v 0.5575000 0.5000000 0.3112500
v 0.5000000 0.5575000 0.3112500
v 0.5000000 0.5000000 0.3237500
v 0.5000000 0.5575000 0.3112500
v 0.4425000 0.5000000 0.3112500
v 0.5000000 0.5000000 0.3237500
v 0.4425000 0.5000000 0.3112500
v 0.5000000 0.4425000 0.3112500
v 0.5000000 0.5000000 0.3237500
v 0.5000000 0.4425000 0.3112500
v 0.5575000 0.5000000 0.3112500
vt 0.5 0.5
vn 0.5000000 0.5000000 -0.7071068
vn 0.7071068 0.0000000 -0.7071068
vn 0.0000000 0.0000000 -1.0000000
vn 0.0000000 0.7071068 -0.7071068
vn 0.5000000 0.5000000 -0.7071068
vn 0.0000000 0.0000000 -1.0000000
vn -0.5000000 0.5000000 -0.7071068
vn 0.0000000 0.7071068 -0.7071068
vn 0.0000000 0.0000000 -1.0000000
vn -0.7071068 0.0000000 -0.7071068
vn -0.5000000 0.5000000 -0.7071068
vn -0.0000000 0.0000000 -1.0000000
vn -0.5000000 -0.5000000 -0.7071068
vn -0.7071068 0.0000000 -0.7071068
vn -0.0000000 0.0000000 -1.0000000
vn -0.0000000 -0.7071068 -0.7071068
vn -0.5000000 -0.5000000 -0.7071068
vn -0.0000000 -0.0000000 -1.0000000
vn 0.5000000 -0.5000000 -0.7071068
vn -0.0000000 -0.7071068 -0.7071068
vn -0.0000000 -0.0000000 -1.0000000
vn 0.7071068 -0.0000000 -0.7071068
vn 0.5000000 -0.5000000 -0.7071068
vn 0.0000000 -0.0000000 -1.0000000
vn 0.5000000 0.5000000 -0.7071068
vn 0.7071068 0.7071068 -0.0000000
vn 1.0000000 0.0000000 -0.0000000
vn 0.7071068 0.0000000 -0.7071068
vn 0.0000000 0.7071068 -0.7071068
vn 0.0000000 1.0000000 -0.0000000
vn 0.7071068 0.7071068 -0.0000000
vn 0.5000000 0.5000000 -0.7071068
vn -0.5000000 0.5000000 -0.7071068
vn -0.7071068 0.7071068 -0.0000000
vn 0.0000000 1.0000000 -0.0000000
vn 0.0000000 0.7071068 -0.7071068
vn -0.7071068 0.0000000 -0.7071068
vn -1.0000000 0.0000000 -0.0000000
vn -0.7071068 0.7071068 -0.0000000
vn -0.5000000 0.5000000 -0.7071068
vn -0.5000000 -0.5000000 -0.7071068
vn -0.7071068 -0.7071068 -0.0000000
vn -1.0000000 0.0000000 -0.0000000
vn -0.7071068 0.0000000 -0.7071068
vn -0.0000000 -0.7071068 -0.7071068
vn -0.0000000 -1.0000000 -0.0000000
vn -0.7071068 -0.7071068 -0.0000000
vn -0.5000000 -0.5000000 -0.7071068
vn 0.5000000 -0.5000000 -0.7071068
vn 0.7071068 -0.7071068 -0.0000000
vn -0.0000000 -1.0000000 -0.0000000
vn -0.0000000 -0.7071068 -0.7071068
vn 0.7071068 -0.0000000 -0.7071068
vn 1.0000000 -0.0000000 -0.0000000
vn 0.7071068 -0.7071068 -0.0000000
vn 0.5000000 -0.5000000 -0.7071068
vn 0.7071068 0.7071068 -0.0000000
vn 0.5000000 0.5000000 0.7071068
vn 0.7071068 0.0000000 0.7071068
vn 1.0000000 0.0000000 -0.0000000
vn 0.0000000 1.0000000 -0.0000000
vn 0.0000000 0.7071068 0.7071068
vn 0.5000000 0.5000000 0.7071068
vn 0.7071068 0.7071068 -0.0000000
vn -0.7071068 0.7071068 -0.0000000
vn -0.5000000 0.5000000 0.7071068
vn 0.0000000 0.7071068 0.7071068
vn 0.0000000 1.0000000 -0.0000000
vn -1.0000000 0.0000000 -0.0000000
vn -0.7071068 0.0000000 0.7071068
vn -0.5000000 0.5000000 0.7071068
vn -0.7071068 0.7071068 -0.0000000
vn -0.7071068 -0.7071068 -0.0000000
vn -0.5000000 -0.5000000 0.7071068
vn -0.7071068 0.0000000 0.7071068
vn -1.0000000 0.0000000 -0.0000000
vn -0.0000000 -1.0000000 -0.0000000
vn -0.0000000 -0.7071068 0.7071068
vn -0.5000000 -0.5000000 0.7071068
vn -0.7071068 -0.7071068 -0.0000000
vn 0.7071068 -0.7071068 -0.0000000
vn 0.5000000 -0.5000000 0.7071068
vn -0.0000000 -0.7071068 0.7071068
vn -0.0000000 -1.0000000 -0.0000000
vn 1.0000000 -0.0000000 -0.0000000
vn 0.7071068 -0.0000000 0.7071068
vn 0.5000000 -0.5000000 0.7071068
vn 0.7071068 -0.7071068 -0.0000000
vn 0.5000000 0.5000000 0.7071068
vn 0.0000000 0.0000000 1.0000000
vn 0.7071068 0.0000000 0.7071068
vn 0.0000000 0.7071068 0.7071068
vn 0.0000000 0.0000000 1.0000000
vn 0.5000000 0.5000000 0.7071068
vn -0.5000000 0.5000000 0.7071068
vn 0.0000000 0.0000000 1.0000000
vn 0.0000000 0.7071068 0.7071068
vn -0.7071068 0.0000000 0.7071068
vn -0.0000000 0.0000000 1.0000000
vn -0.5000000 0.5000000 0.7071068
vn -0.5000000 -0.5000000 0.7071068
vn -0.0000000 0.0000000 1.0000000
vn -0.7071068 0.0000000 0.7071068
vn -0.0000000 -0.7071068 0.7071068
vn -0.0000000 -0.0000000 1.0000000
vn -0.5000000 -0.5000000 0.7071068
vn 0.5000000 -0.5000000 0.7071068
vn -0.0000000 -0.0000000 1.0000000
vn -0.0000000 -0.7071068 0.7071068
vn 0.7071068 -0.0000000 0.7071068
vn 0.0000000 -0.0000000 1.0000000
vn 0.5000000 -0.5000000 0.7071068
vn -0.0000000 -0.0000000 -1.0000000
vn -0.0000000 -0.0000000 -1.0000000
vn -0.0000000 -0.0000000 -1.0000000
vn -0.0000000 -0.0000000 -1.0000000
vn 0.0000000 0.0000000 1.0000000
vn 0.0000000 0.0000000 1.0000000
vn 0.0000000 0.0000000 1.0000000
vn 0.0000000 0.0000000 1.0000000
vn 0.6713935 -0.7411010 0.0000000
vn 0.6713935 -0.7411010 0.0000000
vn 0.6713935 -0.7411010 0.0000000
vn 0.6713935 -0.7411010 0.0000000
vn 0.7071068 0.7071068 0.0000000
vn 0.7071068 0.7071068 0.0000000
vn 0.7071068 0.7071068 0.0000000
vn 0.7071068 0.7071068 0.0000000
vn -0.6740779 0.7386602 0.0000000
vn -0.6740779 0.7386602 0.0000000
vn -0.6740779 0.7386602 0.0000000
vn -0.6740779 0.7386602 0.0000000
vn -0.9262954 -0.3767981 0.0000000
vn -0.9262954 -0.3767981 0.0000000
vn -0.9262954 -0.3767981 0.0000000
vn -0.9262954 -0.3767981 0.0000000
vn -0.0000000 -0.0000000 -1.0000000
vn -0.0000000 -0.0000000 -1.0000000
vn -0.0000000 -0.0000000 -1.0000000
vn -0.0000000 -0.0000000 -1.0000000
vn 0.0000000 0.0000000 1.0000000
vn 0.0000000 0.0000000 1.0000000
vn 0.0000000 0.0000000 1.0000000
vn 0.0000000 0.0000000 1.0000000
vn 0.7411010 0.6713935 0.0000000
vn 0.7411010 0.6713935 0.0000000
vn 0.7411010 0.6713935 0.0000000
vn 0.7411010 0.6713935 0.0000000
vn -0.7071068 0.7071068 0.0000000
vn -0.7071068 0.7071068 0.0000000
vn -0.7071068 0.7071068 0.0000000
vn -0.7071068 0.7071068 0.0000000
vn -0.7386602 -0.6740779 0.0000000
vn -0.7386602 -0.6740779 0.0000000
vn -0.7386602 -0.6740779 0.0000000
vn -0.7386602 -0.6740779 0.0000000
vn 0.3767981 -0.9262954 0.0000000
vn 0.3767981 -0.9262954 0.0000000
vn 0.3767981 -0.9262954 0.0000000
vn 0.3767981 -0.9262954 0.0000000
vn -0.0000000 -0.0000000 -1.0000000
vn -0.0000000 -0.0000000 -1.0000000
vn -0.0000000 -0.0000000 -1.0000000
vn -0.0000000 -0.0000000 -1.0000000
vn 0.0000000 0.0000000 1.0000000
vn 0.0000000 0.0000000 1.0000000
vn 0.0000000 0.0000000 1.0000000
vn 0.0000000 0.0000000 1.0000000
vn -0.6713935 0.7411010 0.0000000
vn -0.6713935 0.7411010 0.0000000
vn -0.6713935 0.7411010 0.0000000
vn -0.6713935 0.7411010 0.0000000
vn -0.7071068 -0.7071068 0.0000000
vn -0.7071068 -0.7071068 0.0000000
vn -0.7071068 -0.7071068 0.0000000
vn -0.7071068 -0.7071068 0.0000000
vn 0.6740779 -0.7386602 0.0000000
vn 0.6740779 -0.7386602 0.0000000
vn 0.6740779 -0.7386602 0.0000000
vn 0.6740779 -0.7386602 0.0000000
vn 0.9262954 0.3767981 0.0000000
vn 0.9262954 0.3767981 0.0000000
vn 0.9262954 0.3767981 0.0000000
vn 0.9262954 0.3767981 0.0000000
vn -0.0000000 -0.0000000 -1.0000000
vn -0.0000000 -0.0000000 -1.0000000
vn -0.0000000 -0.0000000 -1.0000000
vn -0.0000000 -0.0000000 -1.0000000
vn 0.0000000 0.0000000 1.0000000
vn 0.0000000 0.0000000 1.0000000
vn 0.0000000 0.0000000 1.0000000
vn 0.0000000 0.0000000 1.0000000
vn -0.7411010 -0.6713935 0.0000000
vn -0.7411010 -0.6713935 0.0000000
vn -0.7411010 -0.6713935 0.0000000
vn -0.7411010 -0.6713935 0.0000000
vn 0.7071068 -0.7071068 0.0000000
vn 0.7071068 -0.7071068 0.0000000
vn 0.7071068 -0.7071068 0.0000000
vn 0.7071068 -0.7071068 0.0000000
vn 0.7386602 0.6740779 0.0000000
vn 0.7386602 0.6740779 0.0000000
vn 0.7386602 0.6740779 0.0000000
vn 0.7386602 0.6740779 0.0000000
vn -0.3767981 0.9262954 0.0000000
vn -0.3767981 0.9262954 0.0000000
vn -0.3767981 0.9262954 0.0000000
vn -0.3767981 0.9262954 0.0000000
vn 0.2795531 0.2795531 -0.9185315
vn 0.2795531 0.2795531 -0.9185315
vn 0.2795531 0.2795531 -0.9185315
vn -0.2795531 0.2795531 -0.9185315
vn -0.2795531 0.2795531 -0.9185315
vn -0.2795531 0.2795531 -0.9185315
vn -0.2795531 -0.2795531 -0.9185315
vn -0.2795531 -0.2795531 -0.9185315
vn -0.2795531 -0.2795531 -0.9185315
vn 0.2795531 -0.2795531 -0.9185315
vn 0.2795531 -0.2795531 -0.9185315
vn 0.2795531 -0.2795531 -0.9185315
vn 0.2077929 0.2077929 0.9558474
vn 0.2077929 0.2077929 0.9558474
vn 0.2077929 0.2077929 0.9558474
vn -0.2077929 0.2077929 0.9558474
vn -0.2077929 0.2077929 0.9558474
vn -0.2077929 0.2077929 0.9558474
vn -0.2077929 -0.2077929 0.9558474
vn -0.2077929 -0.2077929 0.9558474
vn -0.2077929 -0.2077929 0.9558474
vn 0.2077929 -0.2077929 0.9558474
vn 0.2077929 -0.2077929 0.9558474
vn 0.2077929 -0.2077929 0.9558474
g hull
usemtl silver
f 1/1/1 2/1/2 3/1/3
f 4/1/4 5/1/5 6/1/6
f 7/1/7 8/1/8 9/1/9
f 10/1/10 11/1/11 12/1/12
f 13/1/13 14/1/14 15/1/15
f 16/1/16 17/1/17 18/1/18
f 19/1/19 20/1/20 21/1/21
f 22/1/22 23/1/23 24/1/24
f 25/1/25 26/1/26 27/1/27 28/1/28
f 29/1/29 30/1/30 31/1/31 32/1/32
f 33/1/33 34/1/34 35/1/35 36/1/36
f 37/1/37 38/1/38 39/1/39 40/1/40
f 41/1/41 42/1/42 43/1/43 44/1/44
f 45/1/45 46/1/46 47/1/47 48/1/48
f 49/1/49 50/1/50 51/1/51 52/1/52
f 53/1/53 54/1/54 55/1/55 56/1/56
f 57/1/57 58/1/58 59/1/59 60/1/60
f 61/1/61 62/1/62 63/1/63 64/1/64
f 65/1/65 66/1/66 67/1/67 68/1/68
f 69/1/69 70/1/70 71/1/71 72/1/72
f 73/1/73 74/1/74 75/1/75 76/1/76
f 77/1/77 78/1/78 79/1/79 80/1/80
f 81/1/81 82/1/82 83/1/83 84/1/84
f 85/1/85 86/1/86 87/1/87 88/1/88
f 89/1/89 90/1/90 91/1/91
f 92/1/92 93/1/93 94/1/94
f 95/1/95 96/1/96 97/1/97
f 98/1/98 99/1/99 100/1/100
f 101/1/101 102/1/102 103/1/103
f 104/1/104 105/1/105 106/1/106
f 107/1/107 108/1/108 109/1/109
f 110/1/110 111/1/111 112/1/112
usemtl graphite
f 113/1/113 114/1/114 115/1/115 116/1/116
f 117/1/117 118/1/118 119/1/119 120/1/120
usemtl steel
f 121/1/121 122/1/122 123/1/123 124/1/124
f 125/1/125 126/1/126 127/1/127 128/1/128
f 129/1/129 130/1/130 131/1/131 132/1/132
f 133/1/133 134/1/134 135/1/135 136/1/136
usemtl graphite
f 137/1/137 138/1/138 139/1/139 140/1/140
f 141/1/141 142/1/142 143/1/143 144/1/144
usemtl steel
f 145/1/145 146/1/146 147/1/147 148/1/148
f 149/1/149 150/1/150 151/1/151 152/1/152
f 153/1/153 154/1/154 155/1/155 156/1/156
f 157/1/157 158/1/158 159/1/159 160/1/160
usemtl graphite
f 161/1/161 162/1/162 163/1/163 164/1/164
f 165/1/165 166/1/166 167/1/167 168/1/168
usemtl steel
f 169/1/169 170/1/170 171/1/171 172/1/172
f 173/1/173 174/1/174 175/1/175 176/1/176
f 177/1/177 178/1/178 179/1/179 180/1/180
f 181/1/181 182/1/182 183/1/183 184/1/184
usemtl graphite
f 185/1/185 186/1/186 187/1/187 188/1/188
f 189/1/189 190/1/190 191/1/191 192/1/192
usemtl steel
f 193/1/193 194/1/194 195/1/195 196/1/196
f 197/1/197 198/1/198 199/1/199 200/1/200
f 201/1/201 202/1/202 203/1/203 204/1/204
f 205/1/205 206/1/206 207/1/207 208/1/208
usemtl red_optic
f 209/1/209 210/1/210 211/1/211
f 212/1/212 213/1/213 214/1/214
f 215/1/215 216/1/216 217/1/217
f 218/1/218 219/1/219 220/1/220
f 221/1/221 222/1/222 223/1/223
f 224/1/224 225/1/225 226/1/226
f 227/1/227 228/1/228 229/1/229
f 230/1/230 231/1/231 232/1/232
