# Relics-P04; model coordinates in block units; front faces -Z
mtllib rf_drone_lod.mtl
v 0.5671751 0.5278249 0.3244629
v 0.5727099 0.5000000 0.3244629
v 0.5000000 0.5000000 0.3100000
v 0.5514136 0.5514136 0.3244629
v 0.5278249 0.5671751 0.3244629
v 0.5000000 0.5727099 0.3244629
v 0.4721751 0.5671751 0.3244629
v 0.4485864 0.5514136 0.3244629
v 0.4328249 0.5278249 0.3244629
v 0.4272901 0.5000000 0.3244629
v 0.4328249 0.4721751 0.3244629
v 0.4485864 0.4485864 0.3244629
v 0.4721751 0.4328249 0.3244629
v 0.5000000 0.4272901 0.3244629
v 0.5278249 0.4328249 0.3244629
v 0.5514136 0.4485864 0.3244629
v 0.5671751 0.4721751 0.3244629
v 0.6241235 0.5514136 0.3656497
v 0.6343503 0.5000000 0.3656497
v 0.5950000 0.5950000 0.3656497
v 0.5514136 0.6241235 0.3656497
v 0.5000000 0.6343503 0.3656497
v 0.4485864 0.6241235 0.3656497
v 0.4050000 0.5950000 0.3656497
v 0.3758765 0.5514136 0.3656497
v 0.3656497 0.5000000 0.3656497
v 0.3758765 0.4485864 0.3656497
v 0.4050000 0.4050000 0.3656497
v 0.4485864 0.3758765 0.3656497
v 0.5000000 0.3656497 0.3656497
v 0.5514136 0.3758765 0.3656497
v 0.5950000 0.4050000 0.3656497
v 0.6241235 0.4485864 0.3656497
v 0.6621751 0.5671751 0.4272901
v 0.6755371 0.5000000 0.4272901
v 0.6241235 0.6241235 0.4272901
v 0.5671751 0.6621751 0.4272901
v 0.5000000 0.6755371 0.4272901
v 0.4328249 0.6621751 0.4272901
v 0.3758765 0.6241235 0.4272901
v 0.3378249 0.5671751 0.4272901
v 0.3244629 0.5000000 0.4272901
v 0.3378249 0.4328249 0.4272901
v 0.3758765 0.3758765 0.4272901
v 0.4328249 0.3378249 0.4272901
v 0.5000000 0.3244629 0.4272901
v 0.5671751 0.3378249 0.4272901
v 0.6241235 0.3758765 0.4272901
v 0.6621751 0.4328249 0.4272901
v 0.6755371 0.5727099 0.5000000
v 0.6900000 0.5000000 0.5000000
v 0.6343503 0.6343503 0.5000000
v 0.5727099 0.6755371 0.5000000
v 0.5000000 0.6900000 0.5000000
v 0.4272901 0.6755371 0.5000000
v 0.3656497 0.6343503 0.5000000
v 0.3244629 0.5727099 0.5000000
v 0.3100000 0.5000000 0.5000000
v 0.3244629 0.4272901 0.5000000
v 0.3656497 0.3656497 0.5000000
v 0.4272901 0.3244629 0.5000000
v 0.5000000 0.3100000 0.5000000
v 0.5727099 0.3244629 0.5000000
v 0.6343503 0.3656497 0.5000000
v 0.6755371 0.4272901 0.5000000
v 0.6621751 0.5671751 0.5727099
v 0.6755371 0.5000000 0.5727099
v 0.6241235 0.6241235 0.5727099
v 0.5671751 0.6621751 0.5727099
v 0.5000000 0.6755371 0.5727099
v 0.4328249 0.6621751 0.5727099
v 0.3758765 0.6241235 0.5727099
v 0.3378249 0.5671751 0.5727099
v 0.3244629 0.5000000 0.5727099
v 0.3378249 0.4328249 0.5727099
v 0.3758765 0.3758765 0.5727099
v 0.4328249 0.3378249 0.5727099
v 0.5000000 0.3244629 0.5727099
v 0.5671751 0.3378249 0.5727099
v 0.6241235 0.3758765 0.5727099
v 0.6621751 0.4328249 0.5727099
v 0.6241235 0.5514136 0.6343503
v 0.6343503 0.5000000 0.6343503
v 0.5950000 0.5950000 0.6343503
v 0.5514136 0.6241235 0.6343503
v 0.5000000 0.6343503 0.6343503
v 0.4485864 0.6241235 0.6343503
v 0.4050000 0.5950000 0.6343503
v 0.3758765 0.5514136 0.6343503
v 0.3656497 0.5000000 0.6343503
v 0.3758765 0.4485864 0.6343503
v 0.4050000 0.4050000 0.6343503
v 0.4485864 0.3758765 0.6343503
v 0.5000000 0.3656497 0.6343503
v 0.5514136 0.3758765 0.6343503
v 0.5950000 0.4050000 0.6343503
v 0.6241235 0.4485864 0.6343503
v 0.5671751 0.5278249 0.6755371
v 0.5727099 0.5000000 0.6755371
v 0.5514136 0.5514136 0.6755371
v 0.5278249 0.5671751 0.6755371
v 0.5000000 0.5727099 0.6755371
v 0.4721751 0.5671751 0.6755371
v 0.4485864 0.5514136 0.6755371
v 0.4328249 0.5278249 0.6755371
v 0.4272901 0.5000000 0.6755371
v 0.4328249 0.4721751 0.6755371
v 0.4485864 0.4485864 0.6755371
v 0.4721751 0.4328249 0.6755371
v 0.5000000 0.4272901 0.6755371
v 0.5278249 0.4328249 0.6755371
v 0.5514136 0.4485864 0.6755371
v 0.5671751 0.4721751 0.6755371
v 0.5000000 0.5000000 0.6900000
v 0.6925000 0.5000000 0.4918750
v 0.6778468 0.5736666 0.4918750
v 0.6807339 0.5748624 0.4971875
v 0.6956250 0.5000000 0.4971875
v 0.6361181 0.6361181 0.4918750
v 0.6383278 0.6383278 0.4971875
v 0.5736666 0.6778468 0.4918750
v 0.5748624 0.6807339 0.4971875
v 0.5000000 0.6925000 0.4918750
v 0.5000000 0.6956250 0.4971875
v 0.4263334 0.6778468 0.4918750
v 0.4251376 0.6807339 0.4971875
v 0.3638819 0.6361181 0.4918750
v 0.3616722 0.6383278 0.4971875
v 0.3221532 0.5736666 0.4918750
v 0.3192661 0.5748624 0.4971875
v 0.3075000 0.5000000 0.4918750
v 0.3043750 0.5000000 0.4971875
v 0.3221532 0.4263334 0.4918750
v 0.3192661 0.4251376 0.4971875
v 0.3638819 0.3638819 0.4918750
v 0.3616722 0.3616722 0.4971875
v 0.4263334 0.3221532 0.4918750
v 0.4251376 0.3192661 0.4971875
v 0.5000000 0.3075000 0.4918750
v 0.5000000 0.3043750 0.4971875
v 0.5736666 0.3221532 0.4918750
v 0.5748624 0.3192661 0.4971875
v 0.6361181 0.3638819 0.4918750
v 0.6383278 0.3616722 0.4971875
v 0.6778468 0.4263334 0.4918750
v 0.6807339 0.4251376 0.4971875
v 0.6807339 0.5748624 0.5028125
v 0.6956250 0.5000000 0.5028125
v 0.6383278 0.6383278 0.5028125
v 0.5748624 0.6807339 0.5028125
v 0.5000000 0.6956250 0.5028125
v 0.4251376 0.6807339 0.5028125
v 0.3616722 0.6383278 0.5028125
v 0.3192661 0.5748624 0.5028125
v 0.3043750 0.5000000 0.5028125
v 0.3192661 0.4251376 0.5028125
v 0.3616722 0.3616722 0.5028125
v 0.4251376 0.3192661 0.5028125
v 0.5000000 0.3043750 0.5028125
v 0.5748624 0.3192661 0.5028125
v 0.6383278 0.3616722 0.5028125
v 0.6807339 0.4251376 0.5028125
v 0.6778468 0.5736666 0.5081250
v 0.6925000 0.5000000 0.5081250
v 0.6361181 0.6361181 0.5081250
v 0.5736666 0.6778468 0.5081250
v 0.5000000 0.6925000 0.5081250
v 0.4263334 0.6778468 0.5081250
v 0.3638819 0.6361181 0.5081250
v 0.3221532 0.5736666 0.5081250
v 0.3075000 0.5000000 0.5081250
v 0.3221532 0.4263334 0.5081250
v 0.3638819 0.3638819 0.5081250
v 0.4263334 0.3221532 0.5081250
v 0.5000000 0.3075000 0.5081250
v 0.5736666 0.3221532 0.5081250
v 0.6361181 0.3638819 0.5081250
v 0.6778468 0.4263334 0.5081250
v 0.5487500 0.5000000 0.2968750
v 0.5450391 0.5186558 0.2968750
v 0.5560102 0.5232002 0.3018750
v 0.5606250 0.5000000 0.3018750
v 0.5344715 0.5344715 0.2968750
v 0.5428683 0.5428683 0.3018750
v 0.5186558 0.5450391 0.2968750
v 0.5232002 0.5560102 0.3018750
v 0.5000000 0.5487500 0.2968750
v 0.5000000 0.5606250 0.3018750
v 0.4813442 0.5450391 0.2968750
v 0.4767998 0.5560102 0.3018750
v 0.4655285 0.5344715 0.2968750
v 0.4571317 0.5428683 0.3018750
v 0.4549609 0.5186558 0.2968750
v 0.4439898 0.5232002 0.3018750
v 0.4512500 0.5000000 0.2968750
v 0.4393750 0.5000000 0.3018750
v 0.4549609 0.4813442 0.2968750
v 0.4439898 0.4767998 0.3018750
v 0.4655285 0.4655285 0.2968750
v 0.4571317 0.4571317 0.3018750
v 0.4813442 0.4549609 0.2968750
v 0.4767998 0.4439898 0.3018750
v 0.5000000 0.4512500 0.2968750
v 0.5000000 0.4393750 0.3018750
v 0.5186558 0.4549609 0.2968750
v 0.5232002 0.4439898 0.3018750
v 0.5344715 0.4655285 0.2968750
v 0.5428683 0.4571317 0.3018750
v 0.5450391 0.4813442 0.2968750
v 0.5560102 0.4767998 0.3018750
v 0.5560102 0.5232002 0.3168750
v 0.5606250 0.5000000 0.3168750
v 0.5428683 0.5428683 0.3168750
v 0.5232002 0.5560102 0.3168750
v 0.5000000 0.5606250 0.3168750
v 0.4767998 0.5560102 0.3168750
v 0.4571317 0.5428683 0.3168750
v 0.4439898 0.5232002 0.3168750
v 0.4393750 0.5000000 0.3168750
v 0.4439898 0.4767998 0.3168750
v 0.4571317 0.4571317 0.3168750
v 0.4767998 0.4439898 0.3168750
v 0.5000000 0.4393750 0.3168750
v 0.5232002 0.4439898 0.3168750
v 0.5428683 0.4571317 0.3168750
v 0.5560102 0.4767998 0.3168750
v 0.5000000 0.5000000 0.3025000
v 0.5317584 0.5131547 0.3043750
v 0.5343750 0.5000000 0.3043750
v 0.5243068 0.5243068 0.3043750
v 0.5131547 0.5317584 0.3043750
v 0.5000000 0.5343750 0.3043750
v 0.4868453 0.5317584 0.3043750
v 0.4756932 0.5243068 0.3043750
v 0.4682416 0.5131547 0.3043750
v 0.4656250 0.5000000 0.3043750
v 0.4682416 0.4868453 0.3043750
v 0.4756932 0.4756932 0.3043750
v 0.4868453 0.4682416 0.3043750
v 0.5000000 0.4656250 0.3043750
v 0.5131547 0.4682416 0.3043750
v 0.5243068 0.4756932 0.3043750
v 0.5317584 0.4868453 0.3043750
v 0.5461940 0.5191342 0.3093750
v 0.5500000 0.5000000 0.3093750
v 0.5353553 0.5353553 0.3093750
v 0.5191342 0.5461940 0.3093750
v 0.5000000 0.5500000 0.3093750
v 0.4808658 0.5461940 0.3093750
v 0.4646447 0.5353553 0.3093750
v 0.4538060 0.5191342 0.3093750
v 0.4500000 0.5000000 0.3093750
v 0.4538060 0.4808658 0.3093750
v 0.4646447 0.4646447 0.3093750
v 0.4808658 0.4538060 0.3093750
v 0.5000000 0.4500000 0.3093750
v 0.5191342 0.4538060 0.3093750
v 0.5353553 0.4646447 0.3093750
v 0.5461940 0.4808658 0.3093750
v 0.5412500 0.5000000 0.2990625
v 0.5381100 0.5157857 0.2990625
v 0.5461940 0.5191342 0.2965625
v 0.5500000 0.5000000 0.2965625
v 0.5291682 0.5291682 0.2990625
v 0.5353553 0.5353553 0.2965625
v 0.5157857 0.5381100 0.2990625
v 0.5191342 0.5461940 0.2965625
v 0.5000000 0.5412500 0.2990625
v 0.5000000 0.5500000 0.2965625
v 0.4842143 0.5381100 0.2990625
v 0.4808658 0.5461940 0.2965625
v 0.4708318 0.5291682 0.2990625
v 0.4646447 0.5353553 0.2965625
v 0.4618900 0.5157857 0.2990625
v 0.4538060 0.5191342 0.2965625
v 0.4587500 0.5000000 0.2990625
v 0.4500000 0.5000000 0.2965625
v 0.4618900 0.4842143 0.2990625
v 0.4538060 0.4808658 0.2965625
v 0.4708318 0.4708318 0.2990625
v 0.4646447 0.4646447 0.2965625
v 0.4842143 0.4618900 0.2990625
v 0.4808658 0.4538060 0.2965625
v 0.5000000 0.4587500 0.2990625
v 0.5000000 0.4500000 0.2965625
v 0.5157857 0.4618900 0.2990625
v 0.5191342 0.4538060 0.2965625
v 0.5291682 0.4708318 0.2990625
v 0.5353553 0.4646447 0.2965625
v 0.5381100 0.4842143 0.2990625
v 0.5461940 0.4808658 0.2965625
v 0.5637500 0.5000000 0.3137500
v 0.5588973 0.5243961 0.3137500
v 0.5658264 0.5272662 0.3200000
v 0.5712500 0.5000000 0.3200000
v 0.5450781 0.5450781 0.3137500
v 0.5503814 0.5503814 0.3200000
v 0.5243961 0.5588973 0.3137500
v 0.5272662 0.5658264 0.3200000
v 0.5000000 0.5637500 0.3137500
v 0.5000000 0.5712500 0.3200000
v 0.4756039 0.5588973 0.3137500
v 0.4727338 0.5658264 0.3200000
v 0.4549219 0.5450781 0.3137500
v 0.4496186 0.5503814 0.3200000
v 0.4411027 0.5243961 0.3137500
v 0.4341736 0.5272662 0.3200000
v 0.4362500 0.5000000 0.3137500
v 0.4287500 0.5000000 0.3200000
v 0.4411027 0.4756039 0.3137500
v 0.4341736 0.4727338 0.3200000
v 0.4549219 0.4549219 0.3137500
v 0.4496186 0.4496186 0.3200000
v 0.4756039 0.4411027 0.3137500
v 0.4727338 0.4341736 0.3200000
v 0.5000000 0.4362500 0.3137500
v 0.5000000 0.4287500 0.3200000
v 0.5243961 0.4411027 0.3137500
v 0.5272662 0.4341736 0.3200000
v 0.5450781 0.4549219 0.3137500
v 0.5503814 0.4496186 0.3200000
v 0.5588973 0.4756039 0.3137500
v 0.5658264 0.4727338 0.3200000
v 0.8155464 0.7854944 0.4850000
v 0.7952171 0.7439518 0.4850000
v 0.6436311 0.6082757 0.4850000
v 0.6436311 0.6082757 0.5100000
v 0.7952171 0.7439518 0.5100000
v 0.8155464 0.7854944 0.5100000
v 0.7854944 0.8155464 0.4850000
v 0.7854944 0.8155464 0.5100000
v 0.7439518 0.7952171 0.4850000
v 0.7439518 0.7952171 0.5100000
v 0.6082757 0.6436311 0.4850000
v 0.6082757 0.6436311 0.5100000
v 0.7762136 0.7850524 0.4812500
v 0.7850524 0.7762136 0.4812500
v 0.6489344 0.6427472 0.4812500
v 0.6489344 0.6427472 0.4856250
v 0.7850524 0.7762136 0.4856250
v 0.7762136 0.7850524 0.4856250
v 0.6427472 0.6489344 0.4812500
v 0.6427472 0.6489344 0.4856250
v 0.7108062 0.6913608 0.4825000
v 0.7189312 0.7054337 0.4825000
v 0.7270562 0.6913608 0.4825000
v 0.7026812 0.7054337 0.4825000
v 0.6945562 0.6913608 0.4825000
v 0.7026812 0.6772879 0.4825000
v 0.7189312 0.6772879 0.4825000
v 0.7189312 0.7054337 0.4725000
v 0.7270562 0.6913608 0.4725000
v 0.7026812 0.7054337 0.4725000
v 0.6945562 0.6913608 0.4725000
v 0.7026812 0.6772879 0.4725000
v 0.7189312 0.6772879 0.4725000
v 0.7167437 0.7016448 0.4668750
v 0.7226812 0.6913608 0.4668750
v 0.7048687 0.7016448 0.4668750
v 0.6989312 0.6913608 0.4668750
v 0.7048687 0.6810767 0.4668750
v 0.7167437 0.6810767 0.4668750
v 0.7108062 0.6913608 0.4665625
v 0.7161187 0.7005623 0.4665625
v 0.7214312 0.6913608 0.4665625
v 0.7054937 0.7005623 0.4665625
v 0.7001812 0.6913608 0.4665625
v 0.7054937 0.6821593 0.4665625
v 0.7161187 0.6821593 0.4665625
v 0.7151812 0.6989385 0.4643750
v 0.7195562 0.6913608 0.4643750
v 0.7064312 0.6989385 0.4643750
v 0.7020562 0.6913608 0.4643750
v 0.7064312 0.6837831 0.4643750
v 0.7151812 0.6837831 0.4643750
v 0.7488132 0.7682586 0.4825000
v 0.7569382 0.7823315 0.4825000
v 0.7650632 0.7682586 0.4825000
v 0.7406882 0.7823315 0.4825000
v 0.7325632 0.7682586 0.4825000
v 0.7406882 0.7541857 0.4825000
v 0.7569382 0.7541857 0.4825000
v 0.7569382 0.7823315 0.4725000
v 0.7650632 0.7682586 0.4725000
v 0.7406882 0.7823315 0.4725000
v 0.7325632 0.7682586 0.4725000
v 0.7406882 0.7541857 0.4725000
v 0.7569382 0.7541857 0.4725000
v 0.7547507 0.7785427 0.4668750
v 0.7606882 0.7682586 0.4668750
v 0.7428757 0.7785427 0.4668750
v 0.7369382 0.7682586 0.4668750
v 0.7428757 0.7579746 0.4668750
v 0.7547507 0.7579746 0.4668750
v 0.7488132 0.7682586 0.4665625
v 0.7541257 0.7774602 0.4665625
v 0.7594382 0.7682586 0.4665625
v 0.7435007 0.7774602 0.4665625
v 0.7381882 0.7682586 0.4665625
v 0.7435007 0.7590571 0.4665625
v 0.7541257 0.7590571 0.4665625
v 0.7531882 0.7758364 0.4643750
v 0.7575632 0.7682586 0.4643750
v 0.7444382 0.7758364 0.4643750
v 0.7400632 0.7682586 0.4643750
v 0.7444382 0.7606809 0.4643750
v 0.7531882 0.7606809 0.4643750
v 0.2145056 0.8155464 0.4850000
v 0.2560482 0.7952171 0.4850000
v 0.3917243 0.6436311 0.4850000
v 0.3917243 0.6436311 0.5100000
v 0.2560482 0.7952171 0.5100000
v 0.2145056 0.8155464 0.5100000
v 0.1844536 0.7854944 0.4850000
v 0.1844536 0.7854944 0.5100000
v 0.2047829 0.7439518 0.4850000
v 0.2047829 0.7439518 0.5100000
v 0.3563689 0.6082757 0.4850000
v 0.3563689 0.6082757 0.5100000
v 0.2149476 0.7762136 0.4812500
v 0.2237864 0.7850524 0.4812500
v 0.3572528 0.6489344 0.4812500
v 0.3572528 0.6489344 0.4856250
v 0.2237864 0.7850524 0.4856250
v 0.2149476 0.7762136 0.4856250
v 0.3510656 0.6427472 0.4812500
v 0.3510656 0.6427472 0.4856250
v 0.3086392 0.7108062 0.4825000
v 0.3167642 0.7248791 0.4825000
v 0.3248892 0.7108062 0.4825000
v 0.3005142 0.7248791 0.4825000
v 0.2923892 0.7108062 0.4825000
v 0.3005142 0.6967333 0.4825000
v 0.3167642 0.6967333 0.4825000
v 0.3167642 0.7248791 0.4725000
v 0.3248892 0.7108062 0.4725000
v 0.3005142 0.7248791 0.4725000
v 0.2923892 0.7108062 0.4725000
v 0.3005142 0.6967333 0.4725000
v 0.3167642 0.6967333 0.4725000
v 0.3145767 0.7210903 0.4668750
v 0.3205142 0.7108062 0.4668750
v 0.3027017 0.7210903 0.4668750
v 0.2967642 0.7108062 0.4668750
v 0.3027017 0.7005222 0.4668750
v 0.3145767 0.7005222 0.4668750
v 0.3086392 0.7108062 0.4665625
v 0.3139517 0.7200077 0.4665625
v 0.3192642 0.7108062 0.4665625
v 0.3033267 0.7200077 0.4665625
v 0.2980142 0.7108062 0.4665625
v 0.3033267 0.7016047 0.4665625
v 0.3139517 0.7016047 0.4665625
v 0.3130142 0.7183839 0.4643750
v 0.3173892 0.7108062 0.4643750
v 0.3042642 0.7183839 0.4643750
v 0.2998892 0.7108062 0.4643750
v 0.3042642 0.7032285 0.4643750
v 0.3130142 0.7032285 0.4643750
v 0.2317414 0.7488132 0.4825000
v 0.2398664 0.7628861 0.4825000
v 0.2479914 0.7488132 0.4825000
v 0.2236164 0.7628861 0.4825000
v 0.2154914 0.7488132 0.4825000
v 0.2236164 0.7347403 0.4825000
v 0.2398664 0.7347403 0.4825000
v 0.2398664 0.7628861 0.4725000
v 0.2479914 0.7488132 0.4725000
v 0.2236164 0.7628861 0.4725000
v 0.2154914 0.7488132 0.4725000
v 0.2236164 0.7347403 0.4725000
v 0.2398664 0.7347403 0.4725000
v 0.2376789 0.7590973 0.4668750
v 0.2436164 0.7488132 0.4668750
v 0.2258039 0.7590973 0.4668750
v 0.2198664 0.7488132 0.4668750
v 0.2258039 0.7385291 0.4668750
v 0.2376789 0.7385291 0.4668750
v 0.2317414 0.7488132 0.4665625
v 0.2370539 0.7580147 0.4665625
v 0.2423664 0.7488132 0.4665625
v 0.2264289 0.7580147 0.4665625
v 0.2211164 0.7488132 0.4665625
v 0.2264289 0.7396117 0.4665625
v 0.2370539 0.7396117 0.4665625
v 0.2361164 0.7563909 0.4643750
v 0.2404914 0.7488132 0.4643750
v 0.2273664 0.7563909 0.4643750
v 0.2229914 0.7488132 0.4643750
v 0.2273664 0.7412355 0.4643750
v 0.2361164 0.7412355 0.4643750
v 0.1844536 0.2145056 0.4850000
v 0.2047829 0.2560482 0.4850000
v 0.3563689 0.3917243 0.4850000
v 0.3563689 0.3917243 0.5100000
v 0.2047829 0.2560482 0.5100000
v 0.1844536 0.2145056 0.5100000
v 0.2145056 0.1844536 0.4850000
v 0.2145056 0.1844536 0.5100000
v 0.2560482 0.2047829 0.4850000
v 0.2560482 0.2047829 0.5100000
v 0.3917243 0.3563689 0.4850000
v 0.3917243 0.3563689 0.5100000
v 0.2237864 0.2149476 0.4812500
v 0.2149476 0.2237864 0.4812500
v 0.3510656 0.3572528 0.4812500
v 0.3510656 0.3572528 0.4856250
v 0.2149476 0.2237864 0.4856250
v 0.2237864 0.2149476 0.4856250
v 0.3572528 0.3510656 0.4812500
v 0.3572528 0.3510656 0.4856250
v 0.2891938 0.3086392 0.4825000
v 0.2973188 0.3227121 0.4825000
v 0.3054438 0.3086392 0.4825000
v 0.2810688 0.3227121 0.4825000
v 0.2729438 0.3086392 0.4825000
v 0.2810688 0.2945663 0.4825000
v 0.2973188 0.2945663 0.4825000
v 0.2973188 0.3227121 0.4725000
v 0.3054438 0.3086392 0.4725000
v 0.2810688 0.3227121 0.4725000
v 0.2729438 0.3086392 0.4725000
v 0.2810688 0.2945663 0.4725000
v 0.2973188 0.2945663 0.4725000
v 0.2951313 0.3189233 0.4668750
v 0.3010688 0.3086392 0.4668750
v 0.2832563 0.3189233 0.4668750
v 0.2773188 0.3086392 0.4668750
v 0.2832563 0.2983552 0.4668750
v 0.2951313 0.2983552 0.4668750
v 0.2891938 0.3086392 0.4665625
v 0.2945063 0.3178407 0.4665625
v 0.2998188 0.3086392 0.4665625
v 0.2838813 0.3178407 0.4665625
v 0.2785688 0.3086392 0.4665625
v 0.2838813 0.2994377 0.4665625
v 0.2945063 0.2994377 0.4665625
v 0.2935688 0.3162169 0.4643750
v 0.2979438 0.3086392 0.4643750
v 0.2848188 0.3162169 0.4643750
v 0.2804438 0.3086392 0.4643750
v 0.2848188 0.3010615 0.4643750
v 0.2935688 0.3010615 0.4643750
v 0.2511868 0.2317414 0.4825000
v 0.2593118 0.2458143 0.4825000
v 0.2674368 0.2317414 0.4825000
v 0.2430618 0.2458143 0.4825000
v 0.2349368 0.2317414 0.4825000
v 0.2430618 0.2176685 0.4825000
v 0.2593118 0.2176685 0.4825000
v 0.2593118 0.2458143 0.4725000
v 0.2674368 0.2317414 0.4725000
v 0.2430618 0.2458143 0.4725000
v 0.2349368 0.2317414 0.4725000
v 0.2430618 0.2176685 0.4725000
v 0.2593118 0.2176685 0.4725000
v 0.2571243 0.2420254 0.4668750
v 0.2630618 0.2317414 0.4668750
v 0.2452493 0.2420254 0.4668750
v 0.2393118 0.2317414 0.4668750
v 0.2452493 0.2214573 0.4668750
v 0.2571243 0.2214573 0.4668750
v 0.2511868 0.2317414 0.4665625
v 0.2564993 0.2409429 0.4665625
v 0.2618118 0.2317414 0.4665625
v 0.2458743 0.2409429 0.4665625
v 0.2405618 0.2317414 0.4665625
v 0.2458743 0.2225398 0.4665625
v 0.2564993 0.2225398 0.4665625
v 0.2555618 0.2393191 0.4643750
v 0.2599368 0.2317414 0.4643750
v 0.2468118 0.2393191 0.4643750
v 0.2424368 0.2317414 0.4643750
v 0.2468118 0.2241636 0.4643750
v 0.2555618 0.2241636 0.4643750
v 0.7854944 0.1844536 0.4850000
v 0.7439518 0.2047829 0.4850000
v 0.6082757 0.3563689 0.4850000
v 0.6082757 0.3563689 0.5100000
v 0.7439518 0.2047829 0.5100000
v 0.7854944 0.1844536 0.5100000
v 0.8155464 0.2145056 0.4850000
v 0.8155464 0.2145056 0.5100000
v 0.7952171 0.2560482 0.4850000
v 0.7952171 0.2560482 0.5100000
v 0.6436311 0.3917243 0.4850000
v 0.6436311 0.3917243 0.5100000
v 0.7850524 0.2237864 0.4812500
v 0.7762136 0.2149476 0.4812500
v 0.6427472 0.3510656 0.4812500
v 0.6427472 0.3510656 0.4856250
v 0.7762136 0.2149476 0.4856250
v 0.7850524 0.2237864 0.4856250
v 0.6489344 0.3572528 0.4812500
v 0.6489344 0.3572528 0.4856250
v 0.6913608 0.2891938 0.4825000
v 0.6994858 0.3032667 0.4825000
v 0.7076108 0.2891938 0.4825000
v 0.6832358 0.3032667 0.4825000
v 0.6751108 0.2891938 0.4825000
v 0.6832358 0.2751209 0.4825000
v 0.6994858 0.2751209 0.4825000
v 0.6994858 0.3032667 0.4725000
v 0.7076108 0.2891938 0.4725000
v 0.6832358 0.3032667 0.4725000
v 0.6751108 0.2891938 0.4725000
v 0.6832358 0.2751209 0.4725000
v 0.6994858 0.2751209 0.4725000
v 0.6972983 0.2994778 0.4668750
v 0.7032358 0.2891938 0.4668750
v 0.6854233 0.2994778 0.4668750
v 0.6794858 0.2891938 0.4668750
v 0.6854233 0.2789097 0.4668750
v 0.6972983 0.2789097 0.4668750
v 0.6913608 0.2891938 0.4665625
v 0.6966733 0.2983953 0.4665625
v 0.7019858 0.2891938 0.4665625
v 0.6860483 0.2983953 0.4665625
v 0.6807358 0.2891938 0.4665625
v 0.6860483 0.2799923 0.4665625
v 0.6966733 0.2799923 0.4665625
v 0.6957358 0.2967715 0.4643750
v 0.7001108 0.2891938 0.4643750
v 0.6869858 0.2967715 0.4643750
v 0.6826108 0.2891938 0.4643750
v 0.6869858 0.2816161 0.4643750
v 0.6957358 0.2816161 0.4643750
v 0.7682586 0.2511868 0.4825000
v 0.7763836 0.2652597 0.4825000
v 0.7845086 0.2511868 0.4825000
v 0.7601336 0.2652597 0.4825000
v 0.7520086 0.2511868 0.4825000
v 0.7601336 0.2371139 0.4825000
v 0.7763836 0.2371139 0.4825000
v 0.7763836 0.2652597 0.4725000
v 0.7845086 0.2511868 0.4725000
v 0.7601336 0.2652597 0.4725000
v 0.7520086 0.2511868 0.4725000
v 0.7601336 0.2371139 0.4725000
v 0.7763836 0.2371139 0.4725000
v 0.7741961 0.2614709 0.4668750
v 0.7801336 0.2511868 0.4668750
v 0.7623211 0.2614709 0.4668750
v 0.7563836 0.2511868 0.4668750
v 0.7623211 0.2409027 0.4668750
v 0.7741961 0.2409027 0.4668750
v 0.7682586 0.2511868 0.4665625
v 0.7735711 0.2603883 0.4665625
v 0.7788836 0.2511868 0.4665625
v 0.7629461 0.2603883 0.4665625
v 0.7576336 0.2511868 0.4665625
v 0.7629461 0.2419853 0.4665625
v 0.7735711 0.2419853 0.4665625
v 0.7726336 0.2587645 0.4643750
v 0.7770086 0.2511868 0.4643750
v 0.7638836 0.2587645 0.4643750
v 0.7595086 0.2511868 0.4643750
v 0.7638836 0.2436091 0.4643750
v 0.7726336 0.2436091 0.4643750
vt 0.5 0.5
vn 0.3535534 0.1464466 -0.9238795
vn 0.3826834 0.0000000 -0.9238795
vn 0.0000000 0.0000000 -1.0000000
vn 0.2705981 0.2705981 -0.9238795
vn 0.1464466 0.3535534 -0.9238795
vn 0.0000000 0.3826834 -0.9238795
vn -0.1464466 0.3535534 -0.9238795
vn -0.2705981 0.2705981 -0.9238795
vn -0.3535534 0.1464466 -0.9238795
vn -0.3826834 0.0000000 -0.9238795
vn -0.3535534 -0.1464466 -0.9238795
vn -0.2705981 -0.2705981 -0.9238795
vn -0.1464466 -0.3535534 -0.9238795
vn -0.0000000 -0.3826834 -0.9238795
vn 0.1464466 -0.3535534 -0.9238795
vn 0.2705981 -0.2705981 -0.9238795
vn 0.3535534 -0.1464466 -0.9238795
vn 0.3826834 -0.0000000 -0.9238795
vn 0.6532815 0.2705981 -0.7071068
vn 0.7071068 0.0000000 -0.7071068
vn 0.5000000 0.5000000 -0.7071068
vn 0.2705981 0.6532815 -0.7071068
vn 0.0000000 0.7071068 -0.7071068
vn -0.2705981 0.6532815 -0.7071068
vn -0.5000000 0.5000000 -0.7071068
vn -0.6532815 0.2705981 -0.7071068
vn -0.7071068 0.0000000 -0.7071068
vn -0.6532815 -0.2705981 -0.7071068
vn -0.5000000 -0.5000000 -0.7071068
vn -0.2705981 -0.6532815 -0.7071068
vn -0.0000000 -0.7071068 -0.7071068
vn 0.2705981 -0.6532815 -0.7071068
vn 0.5000000 -0.5000000 -0.7071068
vn 0.6532815 -0.2705981 -0.7071068
vn 0.7071068 -0.0000000 -0.7071068
vn 0.8535534 0.3535534 -0.3826834
vn 0.9238795 0.0000000 -0.3826834
vn 0.6532815 0.6532815 -0.3826834
vn 0.3535534 0.8535534 -0.3826834
vn 0.0000000 0.9238795 -0.3826834
vn -0.3535534 0.8535534 -0.3826834
vn -0.6532815 0.6532815 -0.3826834
vn -0.8535534 0.3535534 -0.3826834
vn -0.9238795 0.0000000 -0.3826834
vn -0.8535534 -0.3535534 -0.3826834
vn -0.6532815 -0.6532815 -0.3826834
vn -0.3535534 -0.8535534 -0.3826834
vn -0.0000000 -0.9238795 -0.3826834
vn 0.3535534 -0.8535534 -0.3826834
vn 0.6532815 -0.6532815 -0.3826834
vn 0.8535534 -0.3535534 -0.3826834
vn 0.9238795 -0.0000000 -0.3826834
vn 0.9238795 0.3826834 -0.0000000
vn 1.0000000 0.0000000 -0.0000000
vn 0.7071068 0.7071068 -0.0000000
vn 0.3826834 0.9238795 -0.0000000
vn 0.0000000 1.0000000 -0.0000000
vn -0.3826834 0.9238795 -0.0000000
vn -0.7071068 0.7071068 -0.0000000
vn -0.9238795 0.3826834 -0.0000000
vn -1.0000000 0.0000000 -0.0000000
vn -0.9238795 -0.3826834 -0.0000000
vn -0.7071068 -0.7071068 -0.0000000
vn -0.3826834 -0.9238795 -0.0000000
vn -0.0000000 -1.0000000 -0.0000000
vn 0.3826834 -0.9238795 -0.0000000
vn 0.7071068 -0.7071068 -0.0000000
vn 0.9238795 -0.3826834 -0.0000000
vn 1.0000000 -0.0000000 -0.0000000
vn 0.8535534 0.3535534 0.3826834
vn 0.9238795 0.0000000 0.3826834
vn 0.6532815 0.6532815 0.3826834
vn 0.3535534 0.8535534 0.3826834
vn 0.0000000 0.9238795 0.3826834
vn -0.3535534 0.8535534 0.3826834
vn -0.6532815 0.6532815 0.3826834
vn -0.8535534 0.3535534 0.3826834
vn -0.9238795 0.0000000 0.3826834
vn -0.8535534 -0.3535534 0.3826834
vn -0.6532815 -0.6532815 0.3826834
vn -0.3535534 -0.8535534 0.3826834
vn -0.0000000 -0.9238795 0.3826834
vn 0.3535534 -0.8535534 0.3826834
vn 0.6532815 -0.6532815 0.3826834
vn 0.8535534 -0.3535534 0.3826834
vn 0.9238795 -0.0000000 0.3826834
vn 0.6532815 0.2705981 0.7071068
vn 0.7071068 0.0000000 0.7071068
vn 0.5000000 0.5000000 0.7071068
vn 0.2705981 0.6532815 0.7071068
vn 0.0000000 0.7071068 0.7071068
vn -0.2705981 0.6532815 0.7071068
vn -0.5000000 0.5000000 0.7071068
vn -0.6532815 0.2705981 0.7071068
vn -0.7071068 0.0000000 0.7071068
vn -0.6532815 -0.2705981 0.7071068
vn -0.5000000 -0.5000000 0.7071068
vn -0.2705981 -0.6532815 0.7071068
vn -0.0000000 -0.7071068 0.7071068
vn 0.2705981 -0.6532815 0.7071068
vn 0.5000000 -0.5000000 0.7071068
vn 0.6532815 -0.2705981 0.7071068
vn 0.7071068 -0.0000000 0.7071068
vn 0.3535534 0.1464466 0.9238795
vn 0.3826834 0.0000000 0.9238795
vn 0.2705981 0.2705981 0.9238795
vn 0.1464466 0.3535534 0.9238795
vn 0.0000000 0.3826834 0.9238795
vn -0.1464466 0.3535534 0.9238795
vn -0.2705981 0.2705981 0.9238795
vn -0.3535534 0.1464466 0.9238795
vn -0.3826834 0.0000000 0.9238795
vn -0.3535534 -0.1464466 0.9238795
vn -0.2705981 -0.2705981 0.9238795
vn -0.1464466 -0.3535534 0.9238795
vn -0.0000000 -0.3826834 0.9238795
vn 0.1464466 -0.3535534 0.9238795
vn 0.2705981 -0.2705981 0.9238795
vn 0.3535534 -0.1464466 0.9238795
vn 0.3826834 -0.0000000 0.9238795
vn 0.0000000 0.0000000 1.0000000
vn -0.0000000 0.0000000 1.0000000
vn -0.0000000 -0.0000000 1.0000000
vn 0.0000000 -0.0000000 1.0000000
vn 0.8495386 0.1689837 -0.4997286
vn 0.7202041 0.4812250 -0.4997286
vn 0.4812250 0.7202041 -0.4997286
vn 0.1689837 0.8495386 -0.4997286
vn -0.1689837 0.8495386 -0.4997286
vn -0.4812250 0.7202041 -0.4997286
vn -0.7202041 0.4812250 -0.4997286
vn -0.8495386 0.1689837 -0.4997286
vn -0.8495386 -0.1689837 -0.4997286
vn -0.7202041 -0.4812250 -0.4997286
vn -0.4812250 -0.7202041 -0.4997286
vn -0.1689837 -0.8495386 -0.4997286
vn 0.1689837 -0.8495386 -0.4997286
vn 0.4812250 -0.7202041 -0.4997286
vn 0.7202041 -0.4812250 -0.4997286
vn 0.8495386 -0.1689837 -0.4997286
vn 0.9807853 0.1950903 0.0000000
vn 0.8314696 0.5555702 0.0000000
vn 0.5555702 0.8314696 0.0000000
vn 0.1950903 0.9807853 0.0000000
vn -0.1950903 0.9807853 0.0000000
vn -0.5555702 0.8314696 0.0000000
vn -0.8314696 0.5555702 0.0000000
vn -0.9807853 0.1950903 0.0000000
vn -0.9807853 -0.1950903 0.0000000
vn -0.8314696 -0.5555702 0.0000000
vn -0.5555702 -0.8314696 0.0000000
vn -0.1950903 -0.9807853 0.0000000
vn 0.1950903 -0.9807853 0.0000000
vn 0.5555702 -0.8314696 0.0000000
vn 0.8314696 -0.5555702 0.0000000
vn 0.9807853 -0.1950903 0.0000000
vn 0.8495386 0.1689837 0.4997286
vn 0.7202041 0.4812250 0.4997286
vn 0.4812250 0.7202041 0.4997286
vn 0.1689837 0.8495386 0.4997286
vn -0.1689837 0.8495386 0.4997286
vn -0.4812250 0.7202041 0.4997286
vn -0.7202041 0.4812250 0.4997286
vn -0.8495386 0.1689837 0.4997286
vn -0.8495386 -0.1689837 0.4997286
vn -0.7202041 -0.4812250 0.4997286
vn -0.4812250 -0.7202041 0.4997286
vn -0.1689837 -0.8495386 0.4997286
vn 0.1689837 -0.8495386 0.4997286
vn 0.4812250 -0.7202041 0.4997286
vn 0.7202041 -0.4812250 0.4997286
vn 0.8495386 -0.1689837 0.4997286
vn 0.3869061 0.0769604 -0.9189019
vn 0.3280031 0.2191647 -0.9189019
vn 0.2191647 0.3280031 -0.9189019
vn 0.0769604 0.3869061 -0.9189019
vn -0.0769604 0.3869061 -0.9189019
vn -0.2191647 0.3280031 -0.9189019
vn -0.3280031 0.2191647 -0.9189019
vn -0.3869061 0.0769604 -0.9189019
vn -0.3869061 -0.0769604 -0.9189019
vn -0.3280031 -0.2191647 -0.9189019
vn -0.2191647 -0.3280031 -0.9189019
vn -0.0769604 -0.3869061 -0.9189019
vn 0.0769604 -0.3869061 -0.9189019
vn 0.2191647 -0.3280031 -0.9189019
vn 0.3280031 -0.2191647 -0.9189019
vn 0.3869061 -0.0769604 -0.9189019
vn 0.1673077 0.0693011 -0.9834661
vn 0.1810925 0.0000000 -0.9834661
vn 0.1280517 0.1280517 -0.9834661
vn 0.0693011 0.1673077 -0.9834661
vn 0.0000000 0.1810925 -0.9834661
vn -0.0693011 0.1673077 -0.9834661
vn -0.1280517 0.1280517 -0.9834661
vn -0.1673077 0.0693011 -0.9834661
vn -0.1810925 0.0000000 -0.9834661
vn -0.1673077 -0.0693011 -0.9834661
vn -0.1280517 -0.1280517 -0.9834661
vn -0.0693011 -0.1673077 -0.9834661
vn -0.0000000 -0.1810925 -0.9834661
vn 0.0693011 -0.1673077 -0.9834661
vn 0.1280517 -0.1280517 -0.9834661
vn 0.1673077 -0.0693011 -0.9834661
vn 0.1810925 -0.0000000 -0.9834661
vn 0.2815761 0.1166326 -0.9524241
vn 0.3047757 0.0000000 -0.9524241
vn 0.2155090 0.2155090 -0.9524241
vn 0.1166326 0.2815761 -0.9524241
vn 0.0000000 0.3047757 -0.9524241
vn -0.1166326 0.2815761 -0.9524241
vn -0.2155090 0.2155090 -0.9524241
vn -0.2815761 0.1166326 -0.9524241
vn -0.3047757 0.0000000 -0.9524241
vn -0.2815761 -0.1166326 -0.9524241
vn -0.2155090 -0.2155090 -0.9524241
vn -0.1166326 -0.2815761 -0.9524241
vn -0.0000000 -0.3047757 -0.9524241
vn 0.1166326 -0.2815761 -0.9524241
vn 0.2155090 -0.2155090 -0.9524241
vn 0.2815761 -0.1166326 -0.9524241
vn 0.3047757 -0.0000000 -0.9524241
vn -0.2743119 -0.0545640 -0.9600915
vn -0.2325504 -0.1553852 -0.9600915
vn -0.1553852 -0.2325504 -0.9600915
vn -0.0545640 -0.2743119 -0.9600915
vn 0.0545640 -0.2743119 -0.9600915
vn 0.1553852 -0.2325504 -0.9600915
vn 0.2325504 -0.1553852 -0.9600915
vn 0.2743119 -0.0545640 -0.9600915
vn 0.2743119 0.0545640 -0.9600915
vn 0.2325504 0.1553852 -0.9600915
vn 0.1553852 0.2325504 -0.9600915
vn 0.0545640 0.2743119 -0.9600915
vn -0.0545640 0.2743119 -0.9600915
vn -0.1553852 0.2325504 -0.9600915
vn -0.2325504 0.1553852 -0.9600915
vn -0.2743119 0.0545640 -0.9600915
vn 0.6350562 0.1263205 -0.7620674
vn 0.5383746 0.3597304 -0.7620674
vn 0.3597304 0.5383746 -0.7620674
vn 0.1263205 0.6350562 -0.7620674
vn -0.1263205 0.6350562 -0.7620674
vn -0.3597304 0.5383746 -0.7620674
vn -0.5383746 0.3597304 -0.7620674
vn -0.6350562 0.1263205 -0.7620674
vn -0.6350562 -0.1263205 -0.7620674
vn -0.5383746 -0.3597304 -0.7620674
vn -0.3597304 -0.5383746 -0.7620674
vn -0.1263205 -0.6350562 -0.7620674
vn 0.1263205 -0.6350562 -0.7620674
vn 0.3597304 -0.5383746 -0.7620674
vn 0.5383746 -0.3597304 -0.7620674
vn 0.6350562 -0.1263205 -0.7620674
vn 0.6669219 -0.7451277 0.0000000
vn 0.8982167 -0.4395529 0.0000000
vn 0.7071068 0.7071068 0.0000000
vn -0.4395529 0.8982167 0.0000000
vn -0.7451277 0.6669219 0.0000000
vn -0.7071068 -0.7071068 0.0000000
vn 0.7001178 -0.7140274 0.0000000
vn -0.7140274 0.7001178 0.0000000
vn -0.8660254 -0.5000000 0.0000000
vn 0.0000000 -1.0000000 0.0000000
vn 0.8660254 -0.5000000 0.0000000
vn 0.8660254 0.5000000 0.0000000
vn 0.0000000 1.0000000 0.0000000
vn -0.8660254 0.5000000 0.0000000
vn -0.7182782 -0.4146981 0.5586608
vn 0.0000000 -0.8293962 0.5586608
vn 0.7182782 -0.4146981 0.5586608
vn 0.7182782 0.4146981 0.5586608
vn 0.0000000 0.8293962 0.5586608
vn -0.7182782 0.4146981 0.5586608
vn -0.6953795 -0.4014775 0.5960396
vn 0.0000000 -0.8029551 0.5960396
vn 0.6953795 -0.4014775 0.5960396
vn 0.6953795 0.4014775 0.5960396
vn 0.0000000 0.8029551 0.5960396
vn -0.6953795 0.4014775 0.5960396
vn 0.7451277 0.6669219 0.0000000
vn 0.4395529 0.8982167 0.0000000
vn -0.7071068 0.7071068 0.0000000
vn -0.8982167 -0.4395529 0.0000000
vn -0.6669219 -0.7451277 0.0000000
vn 0.7071068 -0.7071068 0.0000000
vn 0.7140274 0.7001178 0.0000000
vn -0.7001178 -0.7140274 0.0000000
vn -0.6669219 0.7451277 0.0000000
vn -0.8982167 0.4395529 0.0000000
vn 0.4395529 -0.8982167 0.0000000
vn 0.7451277 -0.6669219 0.0000000
vn -0.7001178 0.7140274 0.0000000
vn 0.7140274 -0.7001178 0.0000000
vn -0.7451277 -0.6669219 0.0000000
vn -0.4395529 -0.8982167 0.0000000
vn 0.8982167 0.4395529 0.0000000
vn 0.6669219 0.7451277 0.0000000
vn -0.7140274 -0.7001178 0.0000000
vn 0.7001178 0.7140274 0.0000000
g hull
usemtl silver
f 1/1/1 2/1/2 3/1/3
f 4/1/4 1/1/1 3/1/3
f 5/1/5 4/1/4 3/1/3
f 6/1/6 5/1/5 3/1/3
f 7/1/7 6/1/6 3/1/3
f 8/1/8 7/1/7 3/1/3
f 9/1/9 8/1/8 3/1/3
f 10/1/10 9/1/9 3/1/3
f 11/1/11 10/1/10 3/1/3
f 12/1/12 11/1/11 3/1/3
f 13/1/13 12/1/12 3/1/3
f 14/1/14 13/1/13 3/1/3
f 15/1/15 14/1/14 3/1/3
f 16/1/16 15/1/15 3/1/3
f 17/1/17 16/1/16 3/1/3
f 2/1/18 17/1/17 3/1/3
f 1/1/1 18/1/19 19/1/20 2/1/2
f 4/1/4 20/1/21 18/1/19 1/1/1
f 5/1/5 21/1/22 20/1/21 4/1/4
f 6/1/6 22/1/23 21/1/22 5/1/5
f 7/1/7 23/1/24 22/1/23 6/1/6
f 8/1/8 24/1/25 23/1/24 7/1/7
f 9/1/9 25/1/26 24/1/25 8/1/8
f 10/1/10 26/1/27 25/1/26 9/1/9
f 11/1/11 27/1/28 26/1/27 10/1/10
f 12/1/12 28/1/29 27/1/28 11/1/11
f 13/1/13 29/1/30 28/1/29 12/1/12
f 14/1/14 30/1/31 29/1/30 13/1/13
f 15/1/15 31/1/32 30/1/31 14/1/14
f 16/1/16 32/1/33 31/1/32 15/1/15
f 17/1/17 33/1/34 32/1/33 16/1/16
f 2/1/18 19/1/35 33/1/34 17/1/17
f 18/1/19 34/1/36 35/1/37 19/1/20
f 20/1/21 36/1/38 34/1/36 18/1/19
f 21/1/22 37/1/39 36/1/38 20/1/21
f 22/1/23 38/1/40 37/1/39 21/1/22
f 23/1/24 39/1/41 38/1/40 22/1/23
f 24/1/25 40/1/42 39/1/41 23/1/24
f 25/1/26 41/1/43 40/1/42 24/1/25
f 26/1/27 42/1/44 41/1/43 25/1/26
f 27/1/28 43/1/45 42/1/44 26/1/27
f 28/1/29 44/1/46 43/1/45 27/1/28
f 29/1/30 45/1/47 44/1/46 28/1/29
f 30/1/31 46/1/48 45/1/47 29/1/30
f 31/1/32 47/1/49 46/1/48 30/1/31
f 32/1/33 48/1/50 47/1/49 31/1/32
f 33/1/34 49/1/51 48/1/50 32/1/33
f 19/1/35 35/1/52 49/1/51 33/1/34
f 34/1/36 50/1/53 51/1/54 35/1/37
f 36/1/38 52/1/55 50/1/53 34/1/36
f 37/1/39 53/1/56 52/1/55 36/1/38
f 38/1/40 54/1/57 53/1/56 37/1/39
f 39/1/41 55/1/58 54/1/57 38/1/40
f 40/1/42 56/1/59 55/1/58 39/1/41
f 41/1/43 57/1/60 56/1/59 40/1/42
f 42/1/44 58/1/61 57/1/60 41/1/43
f 43/1/45 59/1/62 58/1/61 42/1/44
f 44/1/46 60/1/63 59/1/62 43/1/45
f 45/1/47 61/1/64 60/1/63 44/1/46
f 46/1/48 62/1/65 61/1/64 45/1/47
f 47/1/49 63/1/66 62/1/65 46/1/48
f 48/1/50 64/1/67 63/1/66 47/1/49
f 49/1/51 65/1/68 64/1/67 48/1/50
f 35/1/52 51/1/69 65/1/68 49/1/51
f 50/1/53 66/1/70 67/1/71 51/1/54
f 52/1/55 68/1/72 66/1/70 50/1/53
f 53/1/56 69/1/73 68/1/72 52/1/55
f 54/1/57 70/1/74 69/1/73 53/1/56
f 55/1/58 71/1/75 70/1/74 54/1/57
f 56/1/59 72/1/76 71/1/75 55/1/58
f 57/1/60 73/1/77 72/1/76 56/1/59
f 58/1/61 74/1/78 73/1/77 57/1/60
f 59/1/62 75/1/79 74/1/78 58/1/61
f 60/1/63 76/1/80 75/1/79 59/1/62
f 61/1/64 77/1/81 76/1/80 60/1/63
f 62/1/65 78/1/82 77/1/81 61/1/64
f 63/1/66 79/1/83 78/1/82 62/1/65
f 64/1/67 80/1/84 79/1/83 63/1/66
f 65/1/68 81/1/85 80/1/84 64/1/67
f 51/1/69 67/1/86 81/1/85 65/1/68
f 66/1/70 82/1/87 83/1/88 67/1/71
f 68/1/72 84/1/89 82/1/87 66/1/70
f 69/1/73 85/1/90 84/1/89 68/1/72
f 70/1/74 86/1/91 85/1/90 69/1/73
f 71/1/75 87/1/92 86/1/91 70/1/74
f 72/1/76 88/1/93 87/1/92 71/1/75
f 73/1/77 89/1/94 88/1/93 72/1/76
f 74/1/78 90/1/95 89/1/94 73/1/77
f 75/1/79 91/1/96 90/1/95 74/1/78
f 76/1/80 92/1/97 91/1/96 75/1/79
f 77/1/81 93/1/98 92/1/97 76/1/80
f 78/1/82 94/1/99 93/1/98 77/1/81
f 79/1/83 95/1/100 94/1/99 78/1/82
f 80/1/84 96/1/101 95/1/100 79/1/83
f 81/1/85 97/1/102 96/1/101 80/1/84
f 67/1/86 83/1/103 97/1/102 81/1/85
f 82/1/87 98/1/104 99/1/105 83/1/88
f 84/1/89 100/1/106 98/1/104 82/1/87
f 85/1/90 101/1/107 100/1/106 84/1/89
f 86/1/91 102/1/108 101/1/107 85/1/90
f 87/1/92 103/1/109 102/1/108 86/1/91
f 88/1/93 104/1/110 103/1/109 87/1/92
f 89/1/94 105/1/111 104/1/110 88/1/93
f 90/1/95 106/1/112 105/1/111 89/1/94
f 91/1/96 107/1/113 106/1/112 90/1/95
f 92/1/97 108/1/114 107/1/113 91/1/96
f 93/1/98 109/1/115 108/1/114 92/1/97
f 94/1/99 110/1/116 109/1/115 93/1/98
f 95/1/100 111/1/117 110/1/116 94/1/99
f 96/1/101 112/1/118 111/1/117 95/1/100
f 97/1/102 113/1/119 112/1/118 96/1/101
f 83/1/103 99/1/120 113/1/119 97/1/102
f 98/1/104 114/1/121 99/1/105
f 100/1/106 114/1/121 98/1/104
f 101/1/107 114/1/121 100/1/106
f 102/1/108 114/1/121 101/1/107
f 103/1/109 114/1/121 102/1/108
f 104/1/110 114/1/122 103/1/109
f 105/1/111 114/1/122 104/1/110
f 106/1/112 114/1/122 105/1/111
f 107/1/113 114/1/122 106/1/112
f 108/1/114 114/1/123 107/1/113
f 109/1/115 114/1/123 108/1/114
f 110/1/116 114/1/123 109/1/115
f 111/1/117 114/1/123 110/1/116
f 112/1/118 114/1/124 111/1/117
f 113/1/119 114/1/124 112/1/118
f 99/1/120 114/1/124 113/1/119
usemtl steel
f 115/1/125 116/1/125 117/1/125 118/1/125
f 116/1/126 119/1/126 120/1/126 117/1/126
f 119/1/127 121/1/127 122/1/127 120/1/127
f 121/1/128 123/1/128 124/1/128 122/1/128
f 123/1/129 125/1/129 126/1/129 124/1/129
f 125/1/130 127/1/130 128/1/130 126/1/130
f 127/1/131 129/1/131 130/1/131 128/1/131
f 129/1/132 131/1/132 132/1/132 130/1/132
f 131/1/133 133/1/133 134/1/133 132/1/133
f 133/1/134 135/1/134 136/1/134 134/1/134
f 135/1/135 137/1/135 138/1/135 136/1/135
f 137/1/136 139/1/136 140/1/136 138/1/136
f 139/1/137 141/1/137 142/1/137 140/1/137
f 141/1/138 143/1/138 144/1/138 142/1/138
f 143/1/139 145/1/139 146/1/139 144/1/139
f 145/1/140 115/1/140 118/1/140 146/1/140
f 118/1/141 117/1/141 147/1/141 148/1/141
f 117/1/142 120/1/142 149/1/142 147/1/142
f 120/1/143 122/1/143 150/1/143 149/1/143
f 122/1/144 124/1/144 151/1/144 150/1/144
f 124/1/145 126/1/145 152/1/145 151/1/145
f 126/1/146 128/1/146 153/1/146 152/1/146
f 128/1/147 130/1/147 154/1/147 153/1/147
f 130/1/148 132/1/148 155/1/148 154/1/148
f 132/1/149 134/1/149 156/1/149 155/1/149
f 134/1/150 136/1/150 157/1/150 156/1/150
f 136/1/151 138/1/151 158/1/151 157/1/151
f 138/1/152 140/1/152 159/1/152 158/1/152
f 140/1/153 142/1/153 160/1/153 159/1/153
f 142/1/154 144/1/154 161/1/154 160/1/154
f 144/1/155 146/1/155 162/1/155 161/1/155
f 146/1/156 118/1/156 148/1/156 162/1/156
f 148/1/157 147/1/157 163/1/157 164/1/157
f 147/1/158 149/1/158 165/1/158 163/1/158
f 149/1/159 150/1/159 166/1/159 165/1/159
f 150/1/160 151/1/160 167/1/160 166/1/160
f 151/1/161 152/1/161 168/1/161 167/1/161
f 152/1/162 153/1/162 169/1/162 168/1/162
f 153/1/163 154/1/163 170/1/163 169/1/163
f 154/1/164 155/1/164 171/1/164 170/1/164
f 155/1/165 156/1/165 172/1/165 171/1/165
f 156/1/166 157/1/166 173/1/166 172/1/166
f 157/1/167 158/1/167 174/1/167 173/1/167
f 158/1/168 159/1/168 175/1/168 174/1/168
f 159/1/169 160/1/169 176/1/169 175/1/169
f 160/1/170 161/1/170 177/1/170 176/1/170
f 161/1/171 162/1/171 178/1/171 177/1/171
f 162/1/172 148/1/172 164/1/172 178/1/172
usemtl graphite
f 179/1/173 180/1/173 181/1/173 182/1/173
f 180/1/174 183/1/174 184/1/174 181/1/174
f 183/1/175 185/1/175 186/1/175 184/1/175
f 185/1/176 187/1/176 188/1/176 186/1/176
f 187/1/177 189/1/177 190/1/177 188/1/177
f 189/1/178 191/1/178 192/1/178 190/1/178
f 191/1/179 193/1/179 194/1/179 192/1/179
f 193/1/180 195/1/180 196/1/180 194/1/180
f 195/1/181 197/1/181 198/1/181 196/1/181
f 197/1/182 199/1/182 200/1/182 198/1/182
f 199/1/183 201/1/183 202/1/183 200/1/183
f 201/1/184 203/1/184 204/1/184 202/1/184
f 203/1/185 205/1/185 206/1/185 204/1/185
f 205/1/186 207/1/186 208/1/186 206/1/186
f 207/1/187 209/1/187 210/1/187 208/1/187
f 209/1/188 179/1/188 182/1/188 210/1/188
f 182/1/141 181/1/141 211/1/141 212/1/141
f 181/1/142 184/1/142 213/1/142 211/1/142
f 184/1/143 186/1/143 214/1/143 213/1/143
f 186/1/144 188/1/144 215/1/144 214/1/144
f 188/1/145 190/1/145 216/1/145 215/1/145
f 190/1/146 192/1/146 217/1/146 216/1/146
f 192/1/147 194/1/147 218/1/147 217/1/147
f 194/1/148 196/1/148 219/1/148 218/1/148
f 196/1/149 198/1/149 220/1/149 219/1/149
f 198/1/150 200/1/150 221/1/150 220/1/150
f 200/1/151 202/1/151 222/1/151 221/1/151
f 202/1/152 204/1/152 223/1/152 222/1/152
f 204/1/153 206/1/153 224/1/153 223/1/153
f 206/1/154 208/1/154 225/1/154 224/1/154
f 208/1/155 210/1/155 226/1/155 225/1/155
f 210/1/156 182/1/156 212/1/156 226/1/156
usemtl red_glass
f 227/1/3 228/1/189 229/1/190
f 227/1/3 230/1/191 228/1/189
f 227/1/3 231/1/192 230/1/191
f 227/1/3 232/1/193 231/1/192
f 227/1/3 233/1/194 232/1/193
f 227/1/3 234/1/195 233/1/194
f 227/1/3 235/1/196 234/1/195
f 227/1/3 236/1/197 235/1/196
f 227/1/3 237/1/198 236/1/197
f 227/1/3 238/1/199 237/1/198
f 227/1/3 239/1/200 238/1/199
f 227/1/3 240/1/201 239/1/200
f 227/1/3 241/1/202 240/1/201
f 227/1/3 242/1/203 241/1/202
f 227/1/3 243/1/204 242/1/203
f 227/1/3 229/1/205 243/1/204
f 229/1/190 228/1/189 244/1/206 245/1/207
f 228/1/189 230/1/191 246/1/208 244/1/206
f 230/1/191 231/1/192 247/1/209 246/1/208
f 231/1/192 232/1/193 248/1/210 247/1/209
f 232/1/193 233/1/194 249/1/211 248/1/210
f 233/1/194 234/1/195 250/1/212 249/1/211
f 234/1/195 235/1/196 251/1/213 250/1/212
f 235/1/196 236/1/197 252/1/214 251/1/213
f 236/1/197 237/1/198 253/1/215 252/1/214
f 237/1/198 238/1/199 254/1/216 253/1/215
f 238/1/199 239/1/200 255/1/217 254/1/216
f 239/1/200 240/1/201 256/1/218 255/1/217
f 240/1/201 241/1/202 257/1/219 256/1/218
f 241/1/202 242/1/203 258/1/220 257/1/219
f 242/1/203 243/1/204 259/1/221 258/1/220
f 243/1/204 229/1/205 245/1/222 259/1/221
usemtl red_rim
f 260/1/223 261/1/223 262/1/223 263/1/223
f 261/1/224 264/1/224 265/1/224 262/1/224
f 264/1/225 266/1/225 267/1/225 265/1/225
f 266/1/226 268/1/226 269/1/226 267/1/226
f 268/1/227 270/1/227 271/1/227 269/1/227
f 270/1/228 272/1/228 273/1/228 271/1/228
f 272/1/229 274/1/229 275/1/229 273/1/229
f 274/1/230 276/1/230 277/1/230 275/1/230
f 276/1/231 278/1/231 279/1/231 277/1/231
f 278/1/232 280/1/232 281/1/232 279/1/232
f 280/1/233 282/1/233 283/1/233 281/1/233
f 282/1/234 284/1/234 285/1/234 283/1/234
f 284/1/235 286/1/235 287/1/235 285/1/235
f 286/1/236 288/1/236 289/1/236 287/1/236
f 288/1/237 290/1/237 291/1/237 289/1/237
f 290/1/238 260/1/238 263/1/238 291/1/238
usemtl cyan
f 292/1/239 293/1/239 294/1/239 295/1/239
f 293/1/240 296/1/240 297/1/240 294/1/240
f 296/1/241 298/1/241 299/1/241 297/1/241
f 298/1/242 300/1/242 301/1/242 299/1/242
f 300/1/243 302/1/243 303/1/243 301/1/243
f 302/1/244 304/1/244 305/1/244 303/1/244
f 304/1/245 306/1/245 307/1/245 305/1/245
f 306/1/246 308/1/246 309/1/246 307/1/246
f 308/1/247 310/1/247 311/1/247 309/1/247
f 310/1/248 312/1/248 313/1/248 311/1/248
f 312/1/249 314/1/249 315/1/249 313/1/249
f 314/1/250 316/1/250 317/1/250 315/1/250
f 316/1/251 318/1/251 319/1/251 317/1/251
f 318/1/252 320/1/252 321/1/252 319/1/252
f 320/1/253 322/1/253 323/1/253 321/1/253
f 322/1/254 292/1/254 295/1/254 323/1/254
usemtl graphite
f 324/1/3 325/1/3 326/1/3
f 327/1/121 328/1/121 329/1/121
f 330/1/3 324/1/3 326/1/3
f 327/1/121 329/1/121 331/1/121
f 332/1/3 330/1/3 326/1/3
f 327/1/121 331/1/121 333/1/121
f 334/1/3 332/1/3 326/1/3
f 327/1/121 333/1/121 335/1/121
usemtl steel
f 326/1/255 325/1/255 328/1/255 327/1/255
f 325/1/256 324/1/256 329/1/256 328/1/256
f 324/1/257 330/1/257 331/1/257 329/1/257
f 330/1/258 332/1/258 333/1/258 331/1/258
f 332/1/259 334/1/259 335/1/259 333/1/259
f 334/1/260 326/1/260 327/1/260 335/1/260
usemtl cyan
f 336/1/3 337/1/3 338/1/3
f 339/1/121 340/1/121 341/1/121
f 342/1/3 336/1/3 338/1/3
f 339/1/121 341/1/121 343/1/121
f 338/1/261 337/1/261 340/1/261 339/1/261
f 337/1/257 336/1/257 341/1/257 340/1/257
f 336/1/262 342/1/262 343/1/262 341/1/262
f 342/1/260 338/1/260 339/1/260 343/1/260
usemtl steel
f 344/1/3 345/1/3 346/1/3
f 344/1/3 347/1/3 345/1/3
f 344/1/3 348/1/3 347/1/3
f 344/1/3 349/1/3 348/1/3
f 344/1/3 350/1/3 349/1/3
f 344/1/3 346/1/3 350/1/3
f 346/1/263 345/1/263 351/1/263 352/1/263
f 345/1/264 347/1/264 353/1/264 351/1/264
f 347/1/265 348/1/265 354/1/265 353/1/265
f 348/1/266 349/1/266 355/1/266 354/1/266
f 349/1/267 350/1/267 356/1/267 355/1/267
f 350/1/268 346/1/268 352/1/268 356/1/268
f 352/1/269 351/1/269 357/1/269 358/1/269
f 351/1/270 353/1/270 359/1/270 357/1/270
f 353/1/271 354/1/271 360/1/271 359/1/271
f 354/1/272 355/1/272 361/1/272 360/1/272
f 355/1/273 356/1/273 362/1/273 361/1/273
f 356/1/274 352/1/274 358/1/274 362/1/274
usemtl cyan
f 363/1/3 364/1/3 365/1/3
f 363/1/3 366/1/3 364/1/3
f 363/1/3 367/1/3 366/1/3
f 363/1/3 368/1/3 367/1/3
f 363/1/3 369/1/3 368/1/3
f 363/1/3 365/1/3 369/1/3
f 365/1/275 364/1/275 370/1/275 371/1/275
f 364/1/276 366/1/276 372/1/276 370/1/276
f 366/1/277 367/1/277 373/1/277 372/1/277
f 367/1/278 368/1/278 374/1/278 373/1/278
f 368/1/279 369/1/279 375/1/279 374/1/279
f 369/1/280 365/1/280 371/1/280 375/1/280
usemtl steel
f 376/1/3 377/1/3 378/1/3
f 376/1/3 379/1/3 377/1/3
f 376/1/3 380/1/3 379/1/3
f 376/1/3 381/1/3 380/1/3
f 376/1/3 382/1/3 381/1/3
f 376/1/3 378/1/3 382/1/3
f 378/1/263 377/1/263 383/1/263 384/1/263
f 377/1/264 379/1/264 385/1/264 383/1/264
f 379/1/265 380/1/265 386/1/265 385/1/265
f 380/1/266 381/1/266 387/1/266 386/1/266
f 381/1/267 382/1/267 388/1/267 387/1/267
f 382/1/268 378/1/268 384/1/268 388/1/268
f 384/1/269 383/1/269 389/1/269 390/1/269
f 383/1/270 385/1/270 391/1/270 389/1/270
f 385/1/271 386/1/271 392/1/271 391/1/271
f 386/1/272 387/1/272 393/1/272 392/1/272
f 387/1/273 388/1/273 394/1/273 393/1/273
f 388/1/274 384/1/274 390/1/274 394/1/274
usemtl cyan
f 395/1/3 396/1/3 397/1/3
f 395/1/3 398/1/3 396/1/3
f 395/1/3 399/1/3 398/1/3
f 395/1/3 400/1/3 399/1/3
f 395/1/3 401/1/3 400/1/3
f 395/1/3 397/1/3 401/1/3
f 397/1/275 396/1/275 402/1/275 403/1/275
f 396/1/276 398/1/276 404/1/276 402/1/276
f 398/1/277 399/1/277 405/1/277 404/1/277
f 399/1/278 400/1/278 406/1/278 405/1/278
f 400/1/279 401/1/279 407/1/279 406/1/279
f 401/1/280 397/1/280 403/1/280 407/1/280
usemtl graphite
f 408/1/3 409/1/3 410/1/3
f 411/1/121 412/1/121 413/1/121
f 414/1/3 408/1/3 410/1/3
f 411/1/121 413/1/121 415/1/121
f 416/1/3 414/1/3 410/1/3
f 411/1/121 415/1/121 417/1/121
f 418/1/3 416/1/3 410/1/3
f 411/1/121 417/1/121 419/1/121
usemtl steel
f 410/1/281 409/1/281 412/1/281 411/1/281
f 409/1/282 408/1/282 413/1/282 412/1/282
f 408/1/283 414/1/283 415/1/283 413/1/283
f 414/1/284 416/1/284 417/1/284 415/1/284
f 416/1/285 418/1/285 419/1/285 417/1/285
f 418/1/286 410/1/286 411/1/286 419/1/286
usemtl cyan
f 420/1/3 421/1/3 422/1/3
f 423/1/121 424/1/121 425/1/121
f 426/1/3 420/1/3 422/1/3
f 423/1/121 425/1/121 427/1/121
f 422/1/287 421/1/287 424/1/287 423/1/287
f 421/1/283 420/1/283 425/1/283 424/1/283
f 420/1/288 426/1/288 427/1/288 425/1/288
f 426/1/286 422/1/286 423/1/286 427/1/286
usemtl steel
f 428/1/3 429/1/3 430/1/3
f 428/1/3 431/1/3 429/1/3
f 428/1/3 432/1/3 431/1/3
f 428/1/3 433/1/3 432/1/3
f 428/1/3 434/1/3 433/1/3
f 428/1/3 430/1/3 434/1/3
f 430/1/263 429/1/263 435/1/263 436/1/263
f 429/1/264 431/1/264 437/1/264 435/1/264
f 431/1/265 432/1/265 438/1/265 437/1/265
f 432/1/266 433/1/266 439/1/266 438/1/266
f 433/1/267 434/1/267 440/1/267 439/1/267
f 434/1/268 430/1/268 436/1/268 440/1/268
f 436/1/269 435/1/269 441/1/269 442/1/269
f 435/1/270 437/1/270 443/1/270 441/1/270
f 437/1/271 438/1/271 444/1/271 443/1/271
f 438/1/272 439/1/272 445/1/272 444/1/272
f 439/1/273 440/1/273 446/1/273 445/1/273
f 440/1/274 436/1/274 442/1/274 446/1/274
usemtl cyan
f 447/1/3 448/1/3 449/1/3
f 447/1/3 450/1/3 448/1/3
f 447/1/3 451/1/3 450/1/3
f 447/1/3 452/1/3 451/1/3
f 447/1/3 453/1/3 452/1/3
f 447/1/3 449/1/3 453/1/3
f 449/1/275 448/1/275 454/1/275 455/1/275
f 448/1/276 450/1/276 456/1/276 454/1/276
f 450/1/277 451/1/277 457/1/277 456/1/277
f 451/1/278 452/1/278 458/1/278 457/1/278
f 452/1/279 453/1/279 459/1/279 458/1/279
f 453/1/280 449/1/280 455/1/280 459/1/280
usemtl steel
f 460/1/3 461/1/3 462/1/3
f 460/1/3 463/1/3 461/1/3
f 460/1/3 464/1/3 463/1/3
f 460/1/3 465/1/3 464/1/3
f 460/1/3 466/1/3 465/1/3
f 460/1/3 462/1/3 466/1/3
f 462/1/263 461/1/263 467/1/263 468/1/263
f 461/1/264 463/1/264 469/1/264 467/1/264
f 463/1/265 464/1/265 470/1/265 469/1/265
f 464/1/266 465/1/266 471/1/266 470/1/266
f 465/1/267 466/1/267 472/1/267 471/1/267
f 466/1/268 462/1/268 468/1/268 472/1/268
f 468/1/269 467/1/269 473/1/269 474/1/269
f 467/1/270 469/1/270 475/1/270 473/1/270
f 469/1/271 470/1/271 476/1/271 475/1/271
f 470/1/272 471/1/272 477/1/272 476/1/272
f 471/1/273 472/1/273 478/1/273 477/1/273
f 472/1/274 468/1/274 474/1/274 478/1/274
usemtl cyan
f 479/1/3 480/1/3 481/1/3
f 479/1/3 482/1/3 480/1/3
f 479/1/3 483/1/3 482/1/3
f 479/1/3 484/1/3 483/1/3
f 479/1/3 485/1/3 484/1/3
f 479/1/3 481/1/3 485/1/3
f 481/1/275 480/1/275 486/1/275 487/1/275
f 480/1/276 482/1/276 488/1/276 486/1/276
f 482/1/277 483/1/277 489/1/277 488/1/277
f 483/1/278 484/1/278 490/1/278 489/1/278
f 484/1/279 485/1/279 491/1/279 490/1/279
f 485/1/280 481/1/280 487/1/280 491/1/280
usemtl graphite
f 492/1/3 493/1/3 494/1/3
f 495/1/121 496/1/121 497/1/121
f 498/1/3 492/1/3 494/1/3
f 495/1/121 497/1/121 499/1/121
f 500/1/3 498/1/3 494/1/3
f 495/1/121 499/1/121 501/1/121
f 502/1/3 500/1/3 494/1/3
f 495/1/121 501/1/121 503/1/121
usemtl steel
f 494/1/289 493/1/289 496/1/289 495/1/289
f 493/1/290 492/1/290 497/1/290 496/1/290
f 492/1/260 498/1/260 499/1/260 497/1/260
f 498/1/291 500/1/291 501/1/291 499/1/291
f 500/1/292 502/1/292 503/1/292 501/1/292
f 502/1/257 494/1/257 495/1/257 503/1/257
usemtl cyan
f 504/1/3 505/1/3 506/1/3
f 507/1/121 508/1/121 509/1/121
f 510/1/3 504/1/3 506/1/3
f 507/1/121 509/1/121 511/1/121
f 506/1/293 505/1/293 508/1/293 507/1/293
f 505/1/260 504/1/260 509/1/260 508/1/260
f 504/1/294 510/1/294 511/1/294 509/1/294
f 510/1/257 506/1/257 507/1/257 511/1/257
usemtl steel
f 512/1/3 513/1/3 514/1/3
f 512/1/3 515/1/3 513/1/3
f 512/1/3 516/1/3 515/1/3
f 512/1/3 517/1/3 516/1/3
f 512/1/3 518/1/3 517/1/3
f 512/1/3 514/1/3 518/1/3
f 514/1/263 513/1/263 519/1/263 520/1/263
f 513/1/264 515/1/264 521/1/264 519/1/264
f 515/1/265 516/1/265 522/1/265 521/1/265
f 516/1/266 517/1/266 523/1/266 522/1/266
f 517/1/267 518/1/267 524/1/267 523/1/267
f 518/1/268 514/1/268 520/1/268 524/1/268
f 520/1/269 519/1/269 525/1/269 526/1/269
f 519/1/270 521/1/270 527/1/270 525/1/270
f 521/1/271 522/1/271 528/1/271 527/1/271
f 522/1/272 523/1/272 529/1/272 528/1/272
f 523/1/273 524/1/273 530/1/273 529/1/273
f 524/1/274 520/1/274 526/1/274 530/1/274
usemtl cyan
f 531/1/3 532/1/3 533/1/3
f 531/1/3 534/1/3 532/1/3
f 531/1/3 535/1/3 534/1/3
f 531/1/3 536/1/3 535/1/3
f 531/1/3 537/1/3 536/1/3
f 531/1/3 533/1/3 537/1/3
f 533/1/275 532/1/275 538/1/275 539/1/275
f 532/1/276 534/1/276 540/1/276 538/1/276
f 534/1/277 535/1/277 541/1/277 540/1/277
f 535/1/278 536/1/278 542/1/278 541/1/278
f 536/1/279 537/1/279 543/1/279 542/1/279
f 537/1/280 533/1/280 539/1/280 543/1/280
usemtl steel
f 544/1/3 545/1/3 546/1/3
f 544/1/3 547/1/3 545/1/3
f 544/1/3 548/1/3 547/1/3
f 544/1/3 549/1/3 548/1/3
f 544/1/3 550/1/3 549/1/3
f 544/1/3 546/1/3 550/1/3
f 546/1/263 545/1/263 551/1/263 552/1/263
f 545/1/264 547/1/264 553/1/264 551/1/264
f 547/1/265 548/1/265 554/1/265 553/1/265
f 548/1/266 549/1/266 555/1/266 554/1/266
f 549/1/267 550/1/267 556/1/267 555/1/267
f 550/1/268 546/1/268 552/1/268 556/1/268
f 552/1/269 551/1/269 557/1/269 558/1/269
f 551/1/270 553/1/270 559/1/270 557/1/270
f 553/1/271 554/1/271 560/1/271 559/1/271
f 554/1/272 555/1/272 561/1/272 560/1/272
f 555/1/273 556/1/273 562/1/273 561/1/273
f 556/1/274 552/1/274 558/1/274 562/1/274
usemtl cyan
f 563/1/3 564/1/3 565/1/3
f 563/1/3 566/1/3 564/1/3
f 563/1/3 567/1/3 566/1/3
f 563/1/3 568/1/3 567/1/3
f 563/1/3 569/1/3 568/1/3
f 563/1/3 565/1/3 569/1/3
f 565/1/275 564/1/275 570/1/275 571/1/275
f 564/1/276 566/1/276 572/1/276 570/1/276
f 566/1/277 567/1/277 573/1/277 572/1/277
f 567/1/278 568/1/278 574/1/278 573/1/278
f 568/1/279 569/1/279 575/1/279 574/1/279
f 569/1/280 565/1/280 571/1/280 575/1/280
usemtl graphite
f 576/1/3 577/1/3 578/1/3
f 579/1/121 580/1/121 581/1/121
f 582/1/3 576/1/3 578/1/3
f 579/1/121 581/1/121 583/1/121
f 584/1/3 582/1/3 578/1/3
f 579/1/121 583/1/121 585/1/121
f 586/1/3 584/1/3 578/1/3
f 579/1/121 585/1/121 587/1/121
usemtl steel
f 578/1/295 577/1/295 580/1/295 579/1/295
f 577/1/296 576/1/296 581/1/296 580/1/296
f 576/1/286 582/1/286 583/1/286 581/1/286
f 582/1/297 584/1/297 585/1/297 583/1/297
f 584/1/298 586/1/298 587/1/298 585/1/298
f 586/1/283 578/1/283 579/1/283 587/1/283
usemtl cyan
f 588/1/3 589/1/3 590/1/3
f 591/1/121 592/1/121 593/1/121
f 594/1/3 588/1/3 590/1/3
f 591/1/121 593/1/121 595/1/121
f 590/1/299 589/1/299 592/1/299 591/1/299
f 589/1/286 588/1/286 593/1/286 592/1/286
f 588/1/300 594/1/300 595/1/300 593/1/300
f 594/1/283 590/1/283 591/1/283 595/1/283
usemtl steel
f 596/1/3 597/1/3 598/1/3
f 596/1/3 599/1/3 597/1/3
f 596/1/3 600/1/3 599/1/3
f 596/1/3 601/1/3 600/1/3
f 596/1/3 602/1/3 601/1/3
f 596/1/3 598/1/3 602/1/3
f 598/1/263 597/1/263 603/1/263 604/1/263
f 597/1/264 599/1/264 605/1/264 603/1/264
f 599/1/265 600/1/265 606/1/265 605/1/265
f 600/1/266 601/1/266 607/1/266 606/1/266
f 601/1/267 602/1/267 608/1/267 607/1/267
f 602/1/268 598/1/268 604/1/268 608/1/268
f 604/1/269 603/1/269 609/1/269 610/1/269
f 603/1/270 605/1/270 611/1/270 609/1/270
f 605/1/271 606/1/271 612/1/271 611/1/271
f 606/1/272 607/1/272 613/1/272 612/1/272
f 607/1/273 608/1/273 614/1/273 613/1/273
f 608/1/274 604/1/274 610/1/274 614/1/274
usemtl cyan
f 615/1/3 616/1/3 617/1/3
f 615/1/3 618/1/3 616/1/3
f 615/1/3 619/1/3 618/1/3
f 615/1/3 620/1/3 619/1/3
f 615/1/3 621/1/3 620/1/3
f 615/1/3 617/1/3 621/1/3
f 617/1/275 616/1/275 622/1/275 623/1/275
f 616/1/276 618/1/276 624/1/276 622/1/276
f 618/1/277 619/1/277 625/1/277 624/1/277
f 619/1/278 620/1/278 626/1/278 625/1/278
f 620/1/279 621/1/279 627/1/279 626/1/279
f 621/1/280 617/1/280 623/1/280 627/1/280
usemtl steel
f 628/1/3 629/1/3 630/1/3
f 628/1/3 631/1/3 629/1/3
f 628/1/3 632/1/3 631/1/3
f 628/1/3 633/1/3 632/1/3
f 628/1/3 634/1/3 633/1/3
f 628/1/3 630/1/3 634/1/3
f 630/1/263 629/1/263 635/1/263 636/1/263
f 629/1/264 631/1/264 637/1/264 635/1/264
f 631/1/265 632/1/265 638/1/265 637/1/265
f 632/1/266 633/1/266 639/1/266 638/1/266
f 633/1/267 634/1/267 640/1/267 639/1/267
f 634/1/268 630/1/268 636/1/268 640/1/268
f 636/1/269 635/1/269 641/1/269 642/1/269
f 635/1/270 637/1/270 643/1/270 641/1/270
f 637/1/271 638/1/271 644/1/271 643/1/271
f 638/1/272 639/1/272 645/1/272 644/1/272
f 639/1/273 640/1/273 646/1/273 645/1/273
f 640/1/274 636/1/274 642/1/274 646/1/274
usemtl cyan
f 647/1/3 648/1/3 649/1/3
f 647/1/3 650/1/3 648/1/3
f 647/1/3 651/1/3 650/1/3
f 647/1/3 652/1/3 651/1/3
f 647/1/3 653/1/3 652/1/3
f 647/1/3 649/1/3 653/1/3
f 649/1/275 648/1/275 654/1/275 655/1/275
f 648/1/276 650/1/276 656/1/276 654/1/276
f 650/1/277 651/1/277 657/1/277 656/1/277
f 651/1/278 652/1/278 658/1/278 657/1/278
f 652/1/279 653/1/279 659/1/279 658/1/279
f 653/1/280 649/1/280 655/1/280 659/1/280
