# Relics-P04; model coordinates in block units; front faces -Z
mtllib twins_drone_dense.mtl
v 0.2284764 0.5000000 0.3077068
v 0.4877588 0.6602453 0.2086697
v 0.4877588 0.3397547 0.2086697
v 0.5000000 0.6885239 0.1949619
v 0.5000000 0.3114761 0.1949619
v 0.1949619 0.5000000 0.3114761
v 0.5122412 0.3397547 0.2086697
v 0.5122412 0.6602453 0.2086697
v 0.7715236 0.5000000 0.3077068
v 0.8050381 0.5000000 0.3114761
v 0.6602453 0.2086697 0.4877588
v 0.3397547 0.2086697 0.4877588
v 0.5000000 0.3077068 0.2284764
v 0.3114761 0.1949619 0.5000000
v 0.6885239 0.1949619 0.5000000
v 0.4801933 0.3199480 0.2209109
v 0.3199480 0.2209109 0.4801933
v 0.2209109 0.4801933 0.3199480
v 0.7790891 0.4801933 0.3199480
v 0.6800520 0.2209109 0.4801933
v 0.5198067 0.3199480 0.2209109
v 0.4877588 0.3397547 0.7913303
v 0.4877588 0.6602453 0.7913303
v 0.2284764 0.5000000 0.6922932
v 0.5000000 0.3114761 0.8050381
v 0.5000000 0.6885239 0.8050381
v 0.1949619 0.5000000 0.6885239
v 0.7715236 0.5000000 0.6922932
v 0.5122412 0.6602453 0.7913303
v 0.5122412 0.3397547 0.7913303
v 0.8050381 0.5000000 0.6885239
v 0.5000000 0.3077068 0.7715236
v 0.3397547 0.2086697 0.5122412
v 0.6602453 0.2086697 0.5122412
v 0.2209109 0.4801933 0.6800520
v 0.3199480 0.2209109 0.5198067
v 0.4801933 0.3199480 0.7790891
v 0.5198067 0.3199480 0.7790891
v 0.6800520 0.2209109 0.5198067
v 0.7790891 0.4801933 0.6800520
v 0.5000000 0.6922932 0.2284764
v 0.3397547 0.7913303 0.4877588
v 0.6602453 0.7913303 0.4877588
v 0.3114761 0.8050381 0.5000000
v 0.6885239 0.8050381 0.5000000
v 0.2209109 0.5198067 0.3199480
v 0.3199480 0.7790891 0.4801933
v 0.4801933 0.6800520 0.2209109
v 0.5198067 0.6800520 0.2209109
v 0.6800520 0.7790891 0.4801933
v 0.7790891 0.5198067 0.3199480
v 0.6602453 0.7913303 0.5122412
v 0.3397547 0.7913303 0.5122412
v 0.5000000 0.6922932 0.7715236
v 0.4801933 0.6800520 0.7790891
v 0.3199480 0.7790891 0.5198067
v 0.2209109 0.5198067 0.6800520
v 0.7790891 0.5198067 0.6800520
v 0.6800520 0.7790891 0.5198067
v 0.5198067 0.6800520 0.7790891
v 0.2086697 0.4877588 0.6602453
v 0.2086697 0.4877588 0.3397547
v 0.3077068 0.2284764 0.5000000
v 0.3077068 0.7715236 0.5000000
v 0.2086697 0.5122412 0.3397547
v 0.2086697 0.5122412 0.6602453
v 0.6922932 0.2284764 0.5000000
v 0.7913303 0.4877588 0.3397547
v 0.7913303 0.4877588 0.6602453
v 0.7913303 0.5122412 0.6602453
v 0.7913303 0.5122412 0.3397547
v 0.6922932 0.7715236 0.5000000
vt 0.5 0.5
vn -0.3568221 0.0000000 -0.9341724
vn -0.7458803 0.0000000 -0.6660800
vn -0.1025503 -0.3975998 -0.9118102
vn -0.1025503 0.3975998 -0.9118102
vn 0.3568221 0.0000000 -0.9341724
vn 0.7458803 0.0000000 -0.6660800
vn 0.1025503 -0.3975998 -0.9118102
vn 0.1025503 0.3975998 -0.9118102
vn -0.0000000 -0.9341724 -0.3568221
vn 0.3975998 -0.9118102 -0.1025503
vn 0.0000000 -0.6660800 -0.7458803
vn -0.3975998 -0.9118102 -0.1025503
vn -0.5773503 -0.5773503 -0.5773503
vn -0.8092599 -0.1659298 -0.5635297
vn -0.1659298 -0.5635297 -0.8092599
vn -0.5635297 -0.8092599 -0.1659298
vn 0.5773503 -0.5773503 -0.5773503
vn 0.8092599 -0.1659298 -0.5635297
vn 0.1659298 -0.5635297 -0.8092599
vn 0.5635297 -0.8092599 -0.1659298
vn -0.3568221 0.0000000 0.9341724
vn -0.7458803 0.0000000 0.6660800
vn -0.1025503 -0.3975998 0.9118102
vn -0.1025503 0.3975998 0.9118102
vn 0.3568221 -0.0000000 0.9341724
vn 0.7458803 -0.0000000 0.6660800
vn 0.1025503 -0.3975998 0.9118102
vn 0.1025503 0.3975998 0.9118102
vn 0.0000000 -0.9341724 0.3568221
vn 0.3975998 -0.9118102 0.1025503
vn 0.0000000 -0.6660800 0.7458803
vn -0.3975998 -0.9118102 0.1025503
vn -0.5773503 -0.5773503 0.5773503
vn -0.8092599 -0.1659298 0.5635297
vn -0.1659298 -0.5635297 0.8092599
vn -0.5635297 -0.8092599 0.1659298
vn 0.5773503 -0.5773503 0.5773503
vn 0.8092599 -0.1659298 0.5635297
vn 0.1659298 -0.5635297 0.8092599
vn 0.5635297 -0.8092599 0.1659298
vn 0.0000000 0.9341724 -0.3568221
vn 0.3975998 0.9118102 -0.1025503
vn 0.0000000 0.6660800 -0.7458803
vn -0.3975998 0.9118102 -0.1025503
vn -0.5773503 0.5773503 -0.5773503
vn -0.8092599 0.1659298 -0.5635297
vn -0.1659298 0.5635297 -0.8092599
vn -0.5635297 0.8092599 -0.1659298
vn 0.5773503 0.5773503 -0.5773503
vn 0.8092599 0.1659298 -0.5635297
vn 0.1659298 0.5635297 -0.8092599
vn 0.5635297 0.8092599 -0.1659298
vn -0.0000000 0.9341724 0.3568221
vn 0.3975998 0.9118102 0.1025503
vn -0.0000000 0.6660800 0.7458803
vn -0.3975998 0.9118102 0.1025503
vn -0.5773503 0.5773503 0.5773503
vn -0.8092599 0.1659298 0.5635297
vn -0.1659298 0.5635297 0.8092599
vn -0.5635297 0.8092599 0.1659298
vn 0.5773503 0.5773503 0.5773503
vn 0.8092599 0.1659298 0.5635297
vn 0.1659298 0.5635297 0.8092599
vn 0.5635297 0.8092599 0.1659298
vn -0.9341724 -0.3568221 -0.0000000
vn -0.9118102 -0.1025503 0.3975998
vn -0.6660800 -0.7458803 0.0000000
vn -0.9118102 -0.1025503 -0.3975998
vn -0.9341724 0.3568221 0.0000000
vn -0.9118102 0.1025503 0.3975998
vn -0.6660800 0.7458803 0.0000000
vn -0.9118102 0.1025503 -0.3975998
vn 0.9341724 -0.3568221 0.0000000
vn 0.9118102 -0.1025503 0.3975998
vn 0.6660800 -0.7458803 0.0000000
vn 0.9118102 -0.1025503 -0.3975998
vn 0.9341724 0.3568221 -0.0000000
vn 0.9118102 0.1025503 0.3975998
vn 0.6660800 0.7458803 -0.0000000
vn 0.9118102 0.1025503 -0.3975998
g hull
usemtl armor
f 1/1/1 2/1/1 3/1/1
usemtl violet
f 3/1/2 2/1/2 4/1/2 5/1/2
f 2/1/3 1/1/3 6/1/3 4/1/3
f 1/1/4 3/1/4 5/1/4 6/1/4
usemtl obsidian
f 7/1/5 8/1/5 9/1/5
usemtl violet
f 5/1/6 4/1/6 8/1/6 7/1/6
f 4/1/7 10/1/7 9/1/7 8/1/7
f 10/1/8 5/1/8 7/1/8 9/1/8
usemtl obsidian
f 11/1/9 12/1/9 13/1/9
usemtl violet
f 13/1/10 12/1/10 14/1/10 5/1/10
f 12/1/11 11/1/11 15/1/11 14/1/11
f 11/1/12 13/1/12 5/1/12 15/1/12
usemtl armor
f 16/1/13 17/1/13 18/1/13
usemtl violet
f 5/1/14 14/1/14 17/1/14 16/1/14
f 14/1/15 6/1/15 18/1/15 17/1/15
f 6/1/16 5/1/16 16/1/16 18/1/16
usemtl obsidian
f 19/1/17 20/1/17 21/1/17
usemtl violet
f 21/1/18 20/1/18 15/1/18 5/1/18
f 20/1/19 19/1/19 10/1/19 15/1/19
f 19/1/20 21/1/20 5/1/20 10/1/20
usemtl obsidian
f 22/1/21 23/1/21 24/1/21
usemtl violet
f 25/1/22 26/1/22 23/1/22 22/1/22
f 26/1/23 27/1/23 24/1/23 23/1/23
f 27/1/24 25/1/24 22/1/24 24/1/24
usemtl armor
f 28/1/25 29/1/25 30/1/25
usemtl violet
f 30/1/26 29/1/26 26/1/26 25/1/26
f 29/1/27 28/1/27 31/1/27 26/1/27
f 28/1/28 30/1/28 25/1/28 31/1/28
usemtl obsidian
f 32/1/29 33/1/29 34/1/29
usemtl violet
f 25/1/30 14/1/30 33/1/30 32/1/30
f 14/1/31 15/1/31 34/1/31 33/1/31
f 15/1/32 25/1/32 32/1/32 34/1/32
usemtl obsidian
f 35/1/33 36/1/33 37/1/33
usemtl violet
f 37/1/34 36/1/34 14/1/34 25/1/34
f 36/1/35 35/1/35 27/1/35 14/1/35
f 35/1/36 37/1/36 25/1/36 27/1/36
usemtl armor
f 38/1/37 39/1/37 40/1/37
usemtl violet
f 25/1/38 15/1/38 39/1/38 38/1/38
f 15/1/39 31/1/39 40/1/39 39/1/39
f 31/1/40 25/1/40 38/1/40 40/1/40
usemtl obsidian
f 41/1/41 42/1/41 43/1/41
usemtl violet
f 4/1/42 44/1/42 42/1/42 41/1/42
f 44/1/43 45/1/43 43/1/43 42/1/43
f 45/1/44 4/1/44 41/1/44 43/1/44
usemtl obsidian
f 46/1/45 47/1/45 48/1/45
usemtl violet
f 48/1/46 47/1/46 44/1/46 4/1/46
f 47/1/47 46/1/47 6/1/47 44/1/47
f 46/1/48 48/1/48 4/1/48 6/1/48
usemtl armor
f 49/1/49 50/1/49 51/1/49
usemtl violet
f 4/1/50 45/1/50 50/1/50 49/1/50
f 45/1/51 10/1/51 51/1/51 50/1/51
f 10/1/52 4/1/52 49/1/52 51/1/52
usemtl obsidian
f 52/1/53 53/1/53 54/1/53
usemtl violet
f 54/1/54 53/1/54 44/1/54 26/1/54
f 53/1/55 52/1/55 45/1/55 44/1/55
f 52/1/56 54/1/56 26/1/56 45/1/56
usemtl obsidian
f 55/1/57 56/1/57 57/1/57
usemtl violet
f 26/1/58 44/1/58 56/1/58 55/1/58
f 44/1/59 27/1/59 57/1/59 56/1/59
f 27/1/60 26/1/60 55/1/60 57/1/60
usemtl armor
f 58/1/61 59/1/61 60/1/61
usemtl violet
f 60/1/62 59/1/62 45/1/62 26/1/62
f 59/1/63 58/1/63 31/1/63 45/1/63
f 58/1/64 60/1/64 26/1/64 31/1/64
usemtl obsidian
f 61/1/65 62/1/65 63/1/65
usemtl violet
f 63/1/66 62/1/66 6/1/66 14/1/66
f 62/1/67 61/1/67 27/1/67 6/1/67
f 61/1/68 63/1/68 14/1/68 27/1/68
usemtl obsidian
f 64/1/69 65/1/69 66/1/69
usemtl violet
f 44/1/70 6/1/70 65/1/70 64/1/70
f 6/1/71 27/1/71 66/1/71 65/1/71
f 27/1/72 44/1/72 64/1/72 66/1/72
usemtl armor
f 67/1/73 68/1/73 69/1/73
usemtl violet
f 15/1/74 10/1/74 68/1/74 67/1/74
f 10/1/75 31/1/75 69/1/75 68/1/75
f 31/1/76 15/1/76 67/1/76 69/1/76
usemtl obsidian
f 70/1/77 71/1/77 72/1/77
usemtl violet
f 72/1/78 71/1/78 10/1/78 45/1/78
f 71/1/79 70/1/79 31/1/79 10/1/79
f 70/1/80 72/1/80 45/1/80 31/1/80
